<svg width="327" height="103" viewBox="0 0 327 103" fill="none" xmlns="http://www.w3.org/2000/svg">
<path d="M12.1006 0.605469H314.906C321.255 0.605469 326.402 5.75176 326.402 12.1006V90.8994C326.402 97.2482 321.255 102.395 314.906 102.395H12.1006C5.75181 102.394 0.605531 97.2482 0.605469 90.8994V12.1006C0.605531 5.7518 5.7518 0.605529 12.1006 0.605469Z" fill="white" stroke="#EBE9E9" stroke-width="1.21007"/>
<rect x="8" y="8" width="89" height="87" rx="4.03357" fill="#D9D9D9"/>
<path d="M107.438 20.5389C107.438 20.3237 107.363 20.157 107.212 20.0387C107.062 19.9204 106.852 19.8612 106.583 19.8612H106.373C106.094 19.8612 105.873 19.7805 105.712 19.6192C105.561 19.4471 105.486 19.2212 105.486 18.9416C105.486 18.6727 105.566 18.4575 105.728 18.2962C105.889 18.1348 106.104 18.0542 106.373 18.0542H106.97C107.605 18.0542 108.094 18.1402 108.438 18.3123C108.793 18.4737 109.051 18.678 109.213 18.9254C109.385 19.1621 109.487 19.4148 109.519 19.6837C109.552 19.9526 109.568 20.1893 109.568 20.3936V20.5389C109.568 20.6679 109.503 20.7809 109.374 20.8777C108.826 21.1896 108.454 21.5714 108.261 22.0232C108.067 22.4642 107.97 22.9913 107.97 23.6044C107.97 24.1852 108.073 24.6316 108.277 24.9435C108.492 25.2447 108.912 25.3953 109.535 25.3953C109.858 25.3953 110.122 25.3576 110.326 25.2823C110.53 25.207 110.686 25.0941 110.794 24.9435C110.912 24.7822 110.993 24.5939 111.036 24.3788C111.079 24.1529 111.101 23.8948 111.101 23.6044V22.5234C111.101 21.835 110.88 21.3832 110.439 21.1681C110.288 21.0713 110.181 20.9691 110.116 20.8615C110.063 20.754 110.036 20.6141 110.036 20.442C110.036 20.1194 110.192 19.8827 110.504 19.7321C110.686 19.6353 110.864 19.5063 111.036 19.3449C111.208 19.1836 111.321 18.9738 111.375 18.7157C111.45 18.35 111.59 18.1026 111.794 17.9735C111.999 17.8337 112.321 17.7638 112.762 17.7638C113.203 17.7638 113.515 17.8552 113.698 18.038C113.881 18.2101 113.967 18.4306 113.956 18.6995C113.946 18.9147 113.886 19.119 113.779 19.3126C113.671 19.5063 113.537 19.6837 113.375 19.8451C113.225 19.9957 113.053 20.1301 112.859 20.2484C112.676 20.3668 112.493 20.4528 112.311 20.5066C112.805 20.6464 113.16 20.9099 113.375 21.2972C113.601 21.6844 113.714 22.2276 113.714 22.9267V24.04C113.714 25.1801 113.37 26.0406 112.682 26.6215C111.993 27.2023 110.945 27.4927 109.535 27.4927C108.116 27.4927 107.067 27.2023 106.389 26.6215C105.712 26.0406 105.373 25.1801 105.373 24.04V23.6528C105.373 23.158 105.437 22.7331 105.566 22.3782C105.706 22.0124 105.878 21.7059 106.083 21.4585C106.287 21.2111 106.508 21.0121 106.744 20.8615C106.992 20.711 107.223 20.6034 107.438 20.5389ZM106.162 16.7312C105.936 16.7312 105.758 16.6613 105.629 16.5214C105.489 16.3816 105.419 16.1934 105.419 15.9567C105.419 15.7308 105.489 15.5534 105.629 15.4243C105.758 15.2845 105.936 15.2145 106.162 15.2145H109.582V14.666C109.582 14.3541 109.668 14.1389 109.84 14.0206C110.002 13.8915 110.201 13.827 110.437 13.827C110.663 13.827 110.857 13.8915 111.018 14.0206C111.179 14.1389 111.26 14.3541 111.26 14.666V15.2145H112.035V14.666C112.035 14.3541 112.121 14.1389 112.293 14.0206C112.454 13.8915 112.648 13.827 112.874 13.827C113.099 13.827 113.298 13.8915 113.47 14.0206C113.632 14.1389 113.712 14.3541 113.712 14.666V15.8599C113.712 16.1288 113.632 16.3439 113.47 16.5053C113.309 16.6559 113.099 16.7312 112.841 16.7312H106.162ZM112.438 13.2784C112.115 13.2784 111.857 13.1924 111.663 13.0203C111.459 12.8374 111.357 12.5847 111.357 12.262V10.9874C111.357 10.6647 111.459 10.4173 111.663 10.2452C111.857 10.0623 112.115 9.97091 112.438 9.97091C112.761 9.97091 113.029 10.0623 113.245 10.2452C113.449 10.4173 113.551 10.6701 113.551 11.0035V12.2458C113.551 12.5793 113.449 12.8374 113.245 13.0203C113.04 13.1924 112.771 13.2784 112.438 13.2784ZM117.956 23.4753C117.73 23.4753 117.579 23.5613 117.504 23.7334C117.44 23.9055 117.407 24.0615 117.407 24.2013C117.407 24.5886 117.569 24.8843 117.891 25.0887C118.225 25.2931 118.644 25.3953 119.15 25.3953C119.548 25.3953 119.876 25.3254 120.134 25.1855C120.392 25.0457 120.596 24.8521 120.747 24.6047C120.908 24.3573 121.016 24.0723 121.07 23.7496C121.134 23.4161 121.167 23.0558 121.167 22.6686C121.167 22.2061 121.107 21.8135 120.989 21.4908C120.881 21.1573 120.731 20.8884 120.537 20.6841C120.354 20.4689 120.139 20.313 119.892 20.2162C119.645 20.1194 119.386 20.071 119.117 20.071C118.784 20.071 118.451 20.1355 118.117 20.2646C117.794 20.3829 117.515 20.5335 117.278 20.7163C117.074 20.8669 116.875 20.9906 116.681 21.0874C116.488 21.1842 116.262 21.2326 116.004 21.2326C115.778 21.2326 115.584 21.1735 115.423 21.0551C115.272 20.9368 115.165 20.7916 115.1 20.6195C115.036 20.4367 115.019 20.2431 115.052 20.0387C115.084 19.8343 115.175 19.6461 115.326 19.474C115.788 18.9577 116.326 18.5812 116.939 18.3446C117.552 18.108 118.289 17.9896 119.15 17.9896C119.817 17.9896 120.424 18.0918 120.973 18.2962C121.532 18.5006 122.011 18.8017 122.409 19.1997C122.807 19.5977 123.113 20.0871 123.329 20.6679C123.544 21.2488 123.651 21.9156 123.651 22.6686C123.651 24.1852 123.264 25.3684 122.49 26.2181C121.726 27.0679 120.618 27.4927 119.166 27.4927C118.499 27.4927 117.902 27.4121 117.375 27.2507C116.848 27.0786 116.402 26.8474 116.036 26.5569C115.681 26.2558 115.407 25.9008 115.213 25.4921C115.019 25.0833 114.923 24.637 114.923 24.1529C114.923 23.9163 114.949 23.6689 115.003 23.4108C115.057 23.1526 115.159 22.916 115.31 22.7008C115.471 22.4857 115.692 22.3082 115.971 22.1684C116.251 22.0286 116.617 21.9587 117.068 21.9587H118.73C118.956 21.9587 119.134 22.0286 119.263 22.1684C119.403 22.3082 119.472 22.4965 119.472 22.7331C119.472 22.959 119.403 23.1418 119.263 23.2817C119.134 23.4108 118.956 23.4753 118.73 23.4753H117.956ZM127.645 24.5724C127.645 24.9059 127.704 25.1533 127.823 25.3146C127.952 25.4759 128.188 25.5566 128.532 25.5566C128.791 25.5566 128.99 25.6319 129.129 25.7825C129.269 25.9331 129.339 26.1482 129.339 26.4279C129.339 26.7721 129.226 27.0141 129 27.1539C128.774 27.2937 128.506 27.3636 128.194 27.3636H127.855C126.962 27.3636 126.268 27.1163 125.773 26.6215C125.279 26.1267 125.031 25.3576 125.031 24.3143V19.3288C125.031 18.9416 125.15 18.635 125.386 18.4091C125.623 18.1725 125.946 18.0542 126.354 18.0542C126.742 18.0542 127.053 18.1725 127.29 18.4091C127.527 18.635 127.645 18.9416 127.645 19.3288V24.5724ZM129.987 19.3288C129.987 18.9416 130.106 18.635 130.342 18.4091C130.579 18.1725 130.891 18.0542 131.278 18.0542C131.687 18.0542 132.009 18.1725 132.246 18.4091C132.483 18.635 132.601 18.9416 132.601 19.3288V23.3462C132.601 23.9593 132.757 24.4541 133.069 24.8306C133.392 25.207 133.854 25.3953 134.456 25.3953C135.027 25.3953 135.451 25.2447 135.731 24.9435C136.022 24.6316 136.167 24.1045 136.167 23.3623V19.3288C136.167 18.9416 136.285 18.635 136.522 18.4091C136.758 18.1725 137.07 18.0542 137.457 18.0542C137.855 18.0542 138.173 18.1725 138.409 18.4091C138.646 18.635 138.764 18.9416 138.764 19.3288V24.0723C138.764 24.6208 138.684 25.1102 138.522 25.5405C138.372 25.96 138.151 26.3149 137.861 26.6053C137.581 26.8958 137.248 27.1163 136.86 27.2668C136.484 27.4174 136.07 27.4927 135.618 27.4927C134.779 27.4927 134.096 27.3045 133.569 26.928C133.053 26.5516 132.709 26.046 132.537 25.4114V26.202C132.537 26.5784 132.418 26.885 132.182 27.1216C131.956 27.3475 131.655 27.4605 131.278 27.4605C130.88 27.4605 130.563 27.3475 130.326 27.1216C130.1 26.885 129.987 26.5784 129.987 26.202V19.3288ZM140.12 25.1371C140.12 24.7822 140.179 24.4649 140.297 24.1852C140.416 23.9055 140.577 23.6635 140.782 23.4592C140.997 23.244 141.239 23.0666 141.508 22.9267C141.787 22.7869 142.088 22.6793 142.411 22.604L140.62 22.3136C140.405 22.2814 140.233 22.1899 140.104 22.0393C139.975 21.8888 139.921 21.7113 139.943 21.5069C140.061 20.4205 140.48 19.5654 141.201 18.9416C141.932 18.3069 142.917 17.9896 144.154 17.9896C145.616 17.9896 146.708 18.3285 147.429 19.0061C148.16 19.6837 148.526 20.6034 148.526 21.7651V23.3623C148.526 24.1045 148.639 24.6316 148.865 24.9435C149.091 25.2447 149.429 25.3953 149.881 25.3953C150.161 25.3953 150.403 25.3361 150.607 25.2178C150.822 25.0887 151 24.922 151.14 24.7176C151.28 24.5133 151.382 24.282 151.446 24.0239C151.511 23.755 151.543 23.4753 151.543 23.1849V19.3288C151.543 18.9416 151.661 18.635 151.898 18.4091C152.135 18.1725 152.447 18.0542 152.834 18.0542C153.232 18.0542 153.549 18.1725 153.786 18.4091C154.022 18.635 154.141 18.9416 154.141 19.3288V26.202C154.141 26.5784 154.022 26.885 153.786 27.1216C153.56 27.3475 153.248 27.4605 152.85 27.4605C152.473 27.4605 152.167 27.3475 151.93 27.1216C151.704 26.885 151.591 26.5784 151.591 26.202V25.605C151.409 26.2074 151.091 26.6753 150.64 27.0087C150.199 27.3314 149.612 27.4927 148.881 27.4927C147.934 27.4927 147.208 27.2023 146.703 26.6215C146.208 26.0299 145.961 25.1801 145.961 24.0723V22.0393C145.961 21.4262 145.821 20.9422 145.541 20.5873C145.272 20.2215 144.81 20.0387 144.154 20.0387C143.605 20.0387 143.169 20.1731 142.847 20.442C142.524 20.711 142.336 21.1036 142.282 21.6198L143.831 21.9425C144.035 21.9748 144.137 22.1039 144.137 22.3298C144.137 22.4481 144.1 22.5395 144.024 22.604C143.96 22.6686 143.885 22.7277 143.799 22.7815C143.702 22.8353 143.589 22.916 143.46 23.0235C143.331 23.1203 143.202 23.2494 143.073 23.4108C142.954 23.5613 142.852 23.7334 142.766 23.927C142.691 24.1207 142.653 24.3358 142.653 24.5724C142.653 24.8843 142.723 25.1371 142.863 25.3307C143.003 25.5243 143.266 25.6211 143.653 25.6211H143.718C144.288 25.6211 144.573 25.9062 144.573 26.4763C144.573 26.6914 144.519 26.8635 144.412 26.9926C144.315 27.1109 144.197 27.2023 144.057 27.2668C143.917 27.3314 143.772 27.369 143.621 27.3798C143.471 27.4013 143.341 27.4121 143.234 27.4121H143.137C142.223 27.4121 141.491 27.2238 140.943 26.8474C140.394 26.4709 140.12 25.9008 140.12 25.1371ZM154.062 29.9774C154.062 30.4184 153.971 30.768 153.788 31.0261C153.594 31.295 153.357 31.5048 153.078 31.6554C152.798 31.8059 152.497 31.9028 152.174 31.9458C151.841 31.9996 151.54 32.0264 151.271 32.0264C151.013 32.0264 150.733 31.9996 150.432 31.9458C150.131 31.9028 149.851 31.8167 149.593 31.6876C149.324 31.5586 149.103 31.3811 148.931 31.1552C148.759 30.9293 148.673 30.6389 148.673 30.2839V30.0419H148.286C148.06 30.0419 147.883 29.972 147.754 29.8322C147.614 29.6924 147.544 29.5095 147.544 29.2836C147.544 29.0577 147.614 28.8749 147.754 28.7351C147.883 28.606 148.06 28.5414 148.286 28.5414H149.803C150.028 28.5414 150.211 28.6114 150.351 28.7512C150.491 28.891 150.561 29.0739 150.561 29.2998V29.6547C150.561 29.9236 150.615 30.1387 150.722 30.3001C150.83 30.4614 151.013 30.5421 151.271 30.5421C151.518 30.5421 151.696 30.4614 151.803 30.3001C151.9 30.1387 151.948 29.9182 151.948 29.6386V29.3804C151.948 29.0793 152.051 28.8534 152.255 28.7028C152.449 28.5522 152.701 28.4769 153.013 28.4769C153.325 28.4769 153.578 28.563 153.772 28.7351C153.965 28.9072 154.062 29.1653 154.062 29.5095V29.9774Z" fill="#333333"/>
<path d="M108.727 87.8133C108.727 88.1467 108.786 88.3941 108.904 88.5554C109.033 88.7168 109.27 88.7975 109.614 88.7975C109.872 88.7975 110.071 88.8727 110.211 89.0233C110.351 89.1739 110.421 89.389 110.421 89.6687C110.421 90.0129 110.308 90.2549 110.082 90.3947C109.856 90.5346 109.587 90.6045 109.275 90.6045H108.936C108.043 90.6045 107.35 90.3571 106.855 89.8623C106.36 89.3675 106.113 88.5985 106.113 87.5551V82.5696C106.113 82.1824 106.231 81.8759 106.468 81.65C106.704 81.4133 107.027 81.295 107.436 81.295C107.823 81.295 108.135 81.4133 108.372 81.65C108.608 81.8759 108.727 82.1824 108.727 82.5696V87.8133ZM113.47 87.8133C113.47 88.1575 113.535 88.4102 113.664 88.5716C113.793 88.7222 114.029 88.7975 114.373 88.7975C114.621 88.7975 114.814 88.8727 114.954 89.0233C115.094 89.1739 115.164 89.389 115.164 89.6687C115.164 90.0129 115.051 90.2549 114.825 90.3947C114.61 90.5346 114.347 90.6045 114.035 90.6045H113.696C112.792 90.6045 112.093 90.3571 111.598 89.8623C111.114 89.3675 110.872 88.5985 110.872 87.5551V82.5696C110.872 82.1824 110.991 81.8759 111.227 81.65C111.464 81.4133 111.781 81.295 112.179 81.295C112.566 81.295 112.878 81.4133 113.115 81.65C113.352 81.8759 113.47 82.1824 113.47 82.5696V87.8133ZM121.749 86.6839L119.877 86.8291C119.393 86.8506 119.011 86.942 118.732 87.1034C118.463 87.2647 118.328 87.5336 118.328 87.9101C118.328 88.1897 118.409 88.4102 118.57 88.5716C118.742 88.7222 119.001 88.7975 119.345 88.7975H119.49C119.77 88.7975 119.985 88.8835 120.135 89.0556C120.297 89.2169 120.377 89.4374 120.377 89.7171C120.377 89.986 120.297 90.2011 120.135 90.3625C119.985 90.5238 119.77 90.6045 119.49 90.6045H118.683C118.242 90.6045 117.833 90.5561 117.457 90.4593C117.091 90.3517 116.774 90.1904 116.505 89.9753C116.236 89.7601 116.026 89.4966 115.876 89.1847C115.725 88.862 115.65 88.4909 115.65 88.0714C115.65 87.6197 115.741 87.2324 115.924 86.9097C116.107 86.5763 116.36 86.302 116.683 86.0869C117.016 85.8718 117.414 85.7051 117.877 85.5867C118.35 85.4684 118.871 85.3877 119.442 85.3447L121.765 85.1995V84.9898C121.765 83.8711 121.189 83.3118 120.039 83.3118C119.662 83.3118 119.302 83.3871 118.958 83.5377C118.624 83.6775 118.339 83.8873 118.102 84.1669C117.941 84.3605 117.769 84.5165 117.586 84.6348C117.403 84.7531 117.183 84.8123 116.925 84.8123C116.688 84.8123 116.484 84.7693 116.311 84.6832C116.139 84.5864 116.005 84.4627 115.908 84.3121C115.822 84.1615 115.779 83.9894 115.779 83.7958C115.79 83.6022 115.844 83.4032 115.94 83.1989C116.102 82.8654 116.322 82.575 116.602 82.3276C116.892 82.0802 117.215 81.8759 117.57 81.7145C117.936 81.5532 118.328 81.4349 118.748 81.3596C119.167 81.2735 119.598 81.2305 120.039 81.2305C120.942 81.2305 121.684 81.408 122.265 81.7629L123.12 80.7465C123.238 80.5959 123.378 80.4829 123.54 80.4076C123.701 80.3323 123.873 80.2947 124.056 80.2947C124.185 80.2947 124.314 80.3162 124.443 80.3592C124.572 80.4023 124.685 80.4722 124.782 80.569C124.9 80.6765 124.986 80.8056 125.04 80.9562C125.105 81.096 125.132 81.2412 125.121 81.3918C125.11 81.5424 125.067 81.6876 124.992 81.8275C124.927 81.9565 124.83 82.0695 124.701 82.1663L123.717 82.973C123.921 83.2526 124.077 83.5861 124.185 83.9733C124.293 84.3498 124.346 84.7854 124.346 85.2802V89.4106C124.346 89.7978 124.228 90.1097 123.991 90.3463C123.755 90.583 123.437 90.7013 123.039 90.7013C122.652 90.7013 122.34 90.583 122.104 90.3463C121.867 90.1097 121.749 89.7978 121.749 89.4106V86.6839ZM125.675 85.0543C125.675 83.8711 126.057 82.9407 126.82 82.2631C127.584 81.5747 128.708 81.2305 130.192 81.2305C131.677 81.2305 132.801 81.5747 133.564 82.2631C134.328 82.9407 134.71 83.8711 134.71 85.0543V89.4267C134.71 89.7816 134.586 90.0828 134.339 90.3302C134.091 90.5776 133.796 90.7013 133.451 90.7013C133.096 90.7013 132.795 90.5776 132.548 90.3302C132.3 90.0828 132.177 89.7816 132.177 89.4267V85.377C132.177 84.7639 132.005 84.2637 131.66 83.8765C131.327 83.4785 130.838 83.2795 130.192 83.2795C129.547 83.2795 129.057 83.4785 128.724 83.8765C128.391 84.2637 128.224 84.7639 128.224 85.377V89.2815C128.536 89.1201 128.799 88.8243 129.014 88.3941C129.24 87.9639 129.353 87.426 129.353 86.7807V86.2482C129.353 86.0008 129.434 85.7965 129.595 85.6351C129.767 85.4738 129.977 85.3931 130.225 85.3931C130.472 85.3931 130.676 85.4738 130.838 85.6351C130.999 85.7965 131.08 86.0008 131.08 86.2482V86.6839C131.08 87.2109 131.01 87.7003 130.87 88.1521C130.73 88.6038 130.536 89.0018 130.289 89.346C130.042 89.6795 129.746 89.9591 129.402 90.185C129.068 90.4109 128.703 90.5668 128.305 90.6529C128.111 90.6852 127.907 90.7013 127.691 90.7013C127.433 90.7013 127.181 90.669 126.933 90.6045C126.686 90.54 126.471 90.4378 126.288 90.2979C126.105 90.1474 125.954 89.9591 125.836 89.7332C125.728 89.4966 125.675 89.2062 125.675 88.862V85.0543ZM139.899 82.1824C139.899 81.9027 139.975 81.6876 140.125 81.537C140.287 81.3757 140.507 81.295 140.787 81.295H141.142C141.744 81.295 142.266 81.3327 142.707 81.408C143.148 81.4725 143.513 81.6016 143.804 81.7952C144.094 81.9888 144.309 82.2631 144.449 82.618C144.589 82.9622 144.659 83.4086 144.659 83.9572C144.659 84.2799 144.605 84.6509 144.498 85.0704C144.401 85.4792 144.261 85.9202 144.078 86.3934C143.906 86.856 143.696 87.3454 143.449 87.8617C143.212 88.378 142.96 88.905 142.691 89.4428C142.562 89.6902 142.422 89.8946 142.271 90.0559C142.131 90.2173 141.975 90.3463 141.803 90.4431C141.631 90.54 141.432 90.6045 141.206 90.6368C140.98 90.6798 140.722 90.7013 140.432 90.7013C140.109 90.7013 139.829 90.669 139.593 90.6045C139.356 90.54 139.152 90.4485 138.98 90.3302C138.818 90.2011 138.679 90.0559 138.56 89.8946C138.453 89.7225 138.361 89.5343 138.286 89.3299L135.866 82.7148C135.726 82.3384 135.753 82.0103 135.947 81.7306C136.14 81.4402 136.457 81.295 136.898 81.295C137.275 81.295 137.565 81.3757 137.77 81.537C137.974 81.6984 138.135 81.9565 138.254 82.3115L140.48 88.7975H140.529C141.056 87.7218 141.448 86.7914 141.706 86.0062C141.965 85.2103 142.094 84.5864 142.094 84.1347C142.094 83.7797 142.008 83.5162 141.836 83.3441C141.674 83.172 141.405 83.0859 141.029 83.0859H140.787C140.507 83.0859 140.287 83.0053 140.125 82.8439C139.975 82.6826 139.899 82.4621 139.899 82.1824Z" fill="#E16184"/>
<path d="M110.703 48.1328H108.571V42.3023C108.571 42.1423 108.571 41.9446 108.571 41.7094C108.581 41.4741 108.59 41.2294 108.6 40.9752C108.609 40.7211 108.619 40.4953 108.628 40.2976C108.581 40.3541 108.477 40.4576 108.317 40.6082C108.167 40.7494 108.026 40.8764 107.894 40.9894L106.736 41.9211L105.706 40.6364L108.953 38.0529H110.703V48.1328ZM120.504 43.0929C120.504 43.9023 120.439 44.627 120.307 45.267C120.184 45.907 119.982 46.4528 119.7 46.9046C119.427 47.3469 119.065 47.6858 118.613 47.9211C118.17 48.1563 117.625 48.274 116.975 48.274C116.166 48.274 115.502 48.0669 114.985 47.6528C114.467 47.2387 114.081 46.6458 113.827 45.874C113.582 45.1023 113.46 44.1752 113.46 43.0929C113.46 42.0011 113.573 41.0694 113.799 40.2976C114.025 39.5259 114.396 38.9329 114.914 38.5188C115.432 38.1047 116.119 37.8976 116.975 37.8976C117.785 37.8976 118.448 38.1047 118.966 38.5188C119.483 38.9235 119.869 39.5164 120.123 40.2976C120.377 41.0694 120.504 42.0011 120.504 43.0929ZM115.577 43.0929C115.577 43.8552 115.62 44.4952 115.705 45.0128C115.789 45.5211 115.93 45.907 116.128 46.1705C116.335 46.4246 116.617 46.5517 116.975 46.5517C117.333 46.5517 117.61 46.4246 117.808 46.1705C118.015 45.9164 118.161 45.5352 118.246 45.027C118.34 44.5093 118.387 43.8646 118.387 43.0929C118.387 42.3211 118.34 41.6811 118.246 41.1729C118.161 40.6553 118.015 40.2694 117.808 40.0153C117.61 39.7517 117.333 39.62 116.975 39.62C116.617 39.62 116.335 39.7517 116.128 40.0153C115.93 40.2694 115.789 40.6553 115.705 41.1729C115.62 41.6811 115.577 42.3211 115.577 43.0929ZM129.173 48.3163C127.95 48.3163 127.06 48.034 126.505 47.4693C125.959 46.8952 125.686 46.067 125.686 44.9846V40.3964H127.804V45.0976C127.804 45.5964 127.912 45.9775 128.128 46.2411C128.354 46.4952 128.702 46.6222 129.173 46.6222C129.644 46.6222 129.987 46.4952 130.204 46.2411C130.43 45.9775 130.542 45.5964 130.542 45.0976V40.3964H132.66V44.9846C132.66 46.067 132.382 46.8952 131.827 47.4693C131.281 48.034 130.397 48.3163 129.173 48.3163ZM136.681 48.1328V43.0223C136.681 42.627 136.586 42.3399 136.398 42.1611C136.219 41.9823 135.923 41.8929 135.509 41.8929C135.198 41.8929 134.911 41.9352 134.648 42.0199C134.394 42.1046 134.154 42.2082 133.928 42.3305V40.6364C134.135 40.5423 134.426 40.4482 134.803 40.3541C135.179 40.26 135.622 40.2129 136.13 40.2129C136.648 40.2129 137.104 40.2882 137.499 40.4388C137.904 40.5894 138.219 40.8435 138.445 41.2011C138.681 41.5494 138.798 42.0294 138.798 42.6411V48.1328H136.681ZM140.867 48.1328V40.3964H142.42L142.703 41.6105H142.816C142.976 41.2247 143.253 40.9047 143.649 40.6505C144.044 40.387 144.557 40.2553 145.187 40.2553C145.79 40.2553 146.289 40.3635 146.684 40.58C147.079 40.787 147.376 41.107 147.573 41.5399C147.78 41.9635 147.884 42.4999 147.884 43.1493V48.1328H145.766V43.5729C145.766 43.0458 145.658 42.6693 145.441 42.4435C145.234 42.2082 144.929 42.0905 144.524 42.0905C144.194 42.0905 143.912 42.1799 143.677 42.3588C143.451 42.5376 143.277 42.8011 143.154 43.1493C143.041 43.4882 142.985 43.9164 142.985 44.434V48.1328H140.867Z" fill="#E06285"/>
<rect x="254.259" y="10.8042" width="62.6643" height="17.2867" rx="3.78147" fill="#34C739" fill-opacity="0.11"/>
<path d="M267.159 21.8042V20.1202C267.159 19.6967 267.243 19.3706 267.411 19.142C267.579 18.9135 267.818 18.7521 268.127 18.658L268.137 18.6177L267.058 18.2244V17.9622C267.058 17.6328 267.156 17.3303 267.351 17.0547C267.545 16.779 267.831 16.5606 268.208 16.3992C268.591 16.2312 269.055 16.1471 269.599 16.1471C270.11 16.1471 270.55 16.2278 270.92 16.3891C271.29 16.5438 271.576 16.779 271.777 17.095C271.986 17.4043 272.09 17.7975 272.09 18.2748V21.8042H270.577V18.3656C270.577 18.0295 270.487 17.7774 270.305 17.6093C270.13 17.4412 269.882 17.3572 269.559 17.3572C269.25 17.3572 269.018 17.4244 268.863 17.5589C268.708 17.6866 268.624 17.8446 268.611 18.0328L269.508 18.4463L269.398 19.1017C269.156 19.1152 268.974 19.2025 268.853 19.3639C268.732 19.5252 268.672 19.7437 268.672 20.0193V21.8042H267.159ZM270.902 15.7337C270.519 15.7337 270.213 15.6463 269.984 15.4715C269.756 15.2967 269.641 15.0513 269.641 14.7354C269.641 14.4194 269.756 14.174 269.984 13.9992C270.213 13.8245 270.519 13.7371 270.902 13.7371C271.285 13.7371 271.594 13.8245 271.83 13.9992C272.058 14.174 272.173 14.4194 272.173 14.7354C272.173 15.0513 272.058 15.2967 271.83 15.4715C271.594 15.6463 271.285 15.7337 270.902 15.7337ZM270.902 15.1488C271.05 15.1488 271.164 15.1118 271.245 15.0379C271.325 14.9639 271.366 14.8631 271.366 14.7354C271.366 14.6076 271.325 14.5068 271.245 14.4329C271.164 14.3589 271.05 14.3219 270.902 14.3219C270.761 14.3219 270.65 14.3589 270.569 14.4329C270.489 14.5068 270.448 14.6076 270.448 14.7354C270.448 14.8631 270.489 14.9639 270.569 15.0379C270.65 15.1118 270.761 15.1488 270.902 15.1488ZM274.964 21.8042V18.1538C274.964 17.8715 274.897 17.6664 274.762 17.5387C274.635 17.411 274.423 17.3471 274.127 17.3471C273.905 17.3471 273.7 17.3774 273.512 17.4379C273.331 17.4984 273.159 17.5723 272.998 17.6597V16.4496C273.146 16.3824 273.354 16.3152 273.623 16.248C273.892 16.1807 274.208 16.1471 274.571 16.1471C274.941 16.1471 275.267 16.2009 275.549 16.3085C275.838 16.416 276.063 16.5975 276.225 16.853C276.393 17.1017 276.477 17.4446 276.477 17.8816V21.8042H274.964ZM281.03 21.8042V18.2143C281.03 17.8916 280.943 17.6597 280.768 17.5185C280.593 17.3774 280.324 17.3068 279.961 17.3068C279.612 17.3068 279.269 17.3606 278.933 17.4681C278.603 17.569 278.318 17.69 278.076 17.8311V16.5807C278.271 16.4866 278.546 16.3925 278.903 16.2984C279.259 16.1975 279.672 16.1471 280.143 16.1471C280.486 16.1471 280.798 16.1841 281.081 16.258C281.37 16.3253 281.622 16.4429 281.837 16.611C282.052 16.7723 282.217 16.9908 282.331 17.2664C282.452 17.5353 282.513 17.8715 282.513 18.2748V21.8042H281.03ZM279.377 21.905C278.798 21.905 278.351 21.7672 278.035 21.4916C277.726 21.216 277.572 20.8294 277.572 20.3319C277.572 19.7941 277.763 19.3639 278.146 19.0412C278.536 18.7185 279.148 18.5236 279.982 18.4563L281.272 18.3555V19.4446L280.153 19.5555C279.75 19.5958 279.467 19.6765 279.306 19.7975C279.151 19.9185 279.074 20.0798 279.074 20.2815C279.074 20.4832 279.138 20.6345 279.266 20.7353C279.4 20.8361 279.571 20.8866 279.78 20.8866C279.861 20.8866 279.941 20.8798 280.022 20.8664C280.103 20.8462 280.177 20.8261 280.244 20.8059L280.375 21.7538C280.247 21.8008 280.096 21.8378 279.921 21.8647C279.746 21.8916 279.565 21.905 279.377 21.905ZM280.946 15.5118C280.63 15.5118 280.381 15.4648 280.2 15.3707C280.018 15.2765 279.89 15.1589 279.817 15.0177C279.736 14.8698 279.696 14.7152 279.696 14.5539C279.696 14.4396 279.712 14.3186 279.746 14.1908C279.78 14.0564 279.83 13.932 279.897 13.8177L280.996 13.9589C280.983 14.006 280.973 14.0564 280.966 14.1102C280.953 14.1572 280.946 14.2009 280.946 14.2413C280.946 14.3354 280.976 14.4093 281.037 14.4631C281.09 14.5102 281.185 14.5337 281.319 14.5337H283.487V15.5118H280.946ZM284.869 21.8042L283.265 16.2782H284.788L286.008 20.584H286.069C286.176 20.584 286.277 20.5538 286.371 20.4933C286.465 20.4328 286.546 20.3521 286.613 20.2513C286.748 20.063 286.848 19.8412 286.916 19.5857C286.983 19.3236 287.016 19.0647 287.016 18.8093C287.016 18.3589 286.929 18.0126 286.754 17.7706C286.586 17.5286 286.351 17.4076 286.048 17.4076C285.988 17.4076 285.931 17.411 285.877 17.4177C285.83 17.4244 285.786 17.4379 285.746 17.458L285.464 16.2984C285.618 16.2513 285.763 16.2244 285.897 16.2177C286.038 16.2043 286.153 16.1975 286.24 16.1975C286.596 16.1975 286.906 16.2446 287.168 16.3387C287.43 16.4328 287.655 16.574 287.843 16.7622C288.079 16.9908 288.253 17.2765 288.368 17.6194C288.489 17.9622 288.549 18.3488 288.549 18.779C288.549 19.3236 288.462 19.8009 288.287 20.2109C288.119 20.6143 287.914 20.9336 287.672 21.1689C287.47 21.3639 287.215 21.5185 286.906 21.6328C286.603 21.7471 286.186 21.8042 285.655 21.8042H284.869ZM291.95 21.9353C291.197 21.9353 290.629 21.7672 290.246 21.4311C289.863 21.095 289.671 20.6042 289.671 19.9588V19.5555C289.671 19.2799 289.708 19.0547 289.782 18.8799C289.856 18.6984 289.947 18.5336 290.055 18.3858C290.162 18.2379 290.25 18.1068 290.317 17.9925C290.391 17.8715 290.428 17.7471 290.428 17.6194C290.428 17.4984 290.397 17.4143 290.337 17.3673C290.283 17.3135 290.209 17.2866 290.115 17.2866C290.048 17.2866 289.977 17.2967 289.903 17.3169C289.836 17.337 289.759 17.3673 289.671 17.4076L289.429 16.4597C289.618 16.3589 289.819 16.2917 290.034 16.258C290.256 16.2177 290.451 16.1975 290.619 16.1975C290.915 16.1975 291.15 16.2446 291.325 16.3387C291.507 16.4328 291.638 16.5673 291.718 16.7421C291.799 16.9169 291.839 17.1253 291.839 17.3673C291.839 17.5757 291.809 17.7605 291.749 17.9219C291.688 18.0765 291.611 18.2379 291.517 18.4059C291.429 18.5605 291.349 18.7051 291.275 18.8395C291.208 18.974 291.174 19.1689 291.174 19.4244V19.8278C291.174 20.0429 291.204 20.221 291.265 20.3622C291.332 20.4967 291.423 20.5975 291.537 20.6647C291.658 20.7252 291.799 20.7555 291.96 20.7555C292.223 20.7555 292.418 20.6815 292.545 20.5336C292.673 20.379 292.737 20.1605 292.737 19.8782V16.2782H294.239V19.9185C294.239 20.584 294.044 21.0882 293.655 21.4311C293.265 21.7672 292.697 21.9353 291.95 21.9353ZM297.111 21.8042V18.1538C297.111 17.8715 297.044 17.6664 296.91 17.5387C296.782 17.411 296.57 17.3471 296.274 17.3471C296.053 17.3471 295.847 17.3774 295.659 17.4379C295.478 17.4984 295.306 17.5723 295.145 17.6597V16.4496C295.293 16.3824 295.501 16.3152 295.77 16.248C296.039 16.1807 296.355 16.1471 296.718 16.1471C297.088 16.1471 297.414 16.2009 297.696 16.3085C297.985 16.416 298.21 16.5975 298.372 16.853C298.54 17.1017 298.624 17.4446 298.624 17.8816V21.8042H297.111ZM302.371 21.9353C301.766 21.9353 301.282 21.8647 300.919 21.7235C300.556 21.5756 300.29 21.3706 300.122 21.1084C299.961 20.8462 299.88 20.5437 299.88 20.2009C299.88 19.9051 299.924 19.6664 300.011 19.4849C300.105 19.3034 300.223 19.1656 300.364 19.0715C300.512 18.9706 300.66 18.9034 300.808 18.8698V18.8093C300.653 18.7555 300.505 18.6815 300.364 18.5874C300.223 18.4933 300.105 18.3656 300.011 18.2042C299.924 18.0429 299.88 17.8412 299.88 17.5992C299.88 17.3505 299.937 17.1185 300.051 16.9034C300.172 16.6883 300.364 16.5169 300.626 16.3891C300.888 16.2547 301.235 16.1875 301.665 16.1875C301.873 16.1875 302.075 16.2043 302.27 16.2379C302.465 16.2648 302.616 16.3051 302.724 16.3589L302.492 17.3774C302.438 17.3639 302.364 17.3505 302.27 17.337C302.183 17.3169 302.092 17.3068 301.998 17.3068C301.789 17.3068 301.635 17.3572 301.534 17.458C301.433 17.5521 301.383 17.6765 301.383 17.8311C301.383 17.9925 301.426 18.1168 301.514 18.2042C301.601 18.2916 301.712 18.3521 301.846 18.3858C301.988 18.4194 302.132 18.4362 302.28 18.4362H302.492V19.374H302.28C301.991 19.374 301.772 19.4244 301.625 19.5252C301.483 19.6261 301.413 19.7908 301.413 20.0193C301.413 20.1404 301.44 20.2614 301.493 20.3824C301.554 20.4967 301.655 20.5941 301.796 20.6748C301.937 20.7487 302.139 20.7857 302.401 20.7857C302.65 20.7857 302.845 20.7487 302.986 20.6748C303.127 20.6009 303.228 20.5034 303.288 20.3824C303.349 20.2546 303.379 20.1135 303.379 19.9588V16.2782H304.892V19.9084C304.892 20.6009 304.687 21.1118 304.277 21.4412C303.873 21.7706 303.238 21.9353 302.371 21.9353Z" fill="#34C759"/>
<rect x="238.413" y="35.2939" width="77.0699" height="22.3287" rx="11.1643" fill="#E06285" fill-opacity="0.12"/>
<path d="M269.907 49.8955V47.4105H269.291V46.4166H271.365V48.6638H271.441C271.679 48.6638 271.88 48.599 272.046 48.4694C272.219 48.3397 272.349 48.1488 272.435 47.8967C272.521 47.6374 272.565 47.3133 272.565 46.9244C272.565 46.4778 272.5 46.1248 272.37 45.8655C272.248 45.599 272.064 45.4082 271.819 45.2929C271.574 45.1777 271.272 45.1201 270.912 45.1201C270.537 45.1201 270.199 45.1741 269.896 45.2821C269.594 45.383 269.323 45.5054 269.086 45.6495V44.2989C269.323 44.1765 269.622 44.0684 269.982 43.9748C270.343 43.8812 270.757 43.8344 271.225 43.8344C271.924 43.8344 272.489 43.946 272.921 44.1693C273.361 44.3926 273.685 44.7311 273.894 45.1849C274.102 45.6387 274.207 46.2077 274.207 46.8919C274.207 47.533 274.11 48.0804 273.915 48.5342C273.728 48.9808 273.418 49.3193 272.986 49.5498C272.561 49.7803 271.992 49.8955 271.279 49.8955H269.907ZM272.818 43.3914C272.407 43.3914 272.08 43.2977 271.835 43.1105C271.59 42.9232 271.467 42.6603 271.467 42.3218C271.467 41.9832 271.59 41.7203 271.835 41.5331C272.08 41.3458 272.407 41.2522 272.818 41.2522C273.228 41.2522 273.56 41.3458 273.812 41.5331C274.057 41.7203 274.179 41.9832 274.179 42.3218C274.179 42.6603 274.057 42.9232 273.812 43.1105C273.56 43.2977 273.228 43.3914 272.818 43.3914ZM272.818 42.7647C272.976 42.7647 273.099 42.7251 273.185 42.6459C273.272 42.5667 273.315 42.4586 273.315 42.3218C273.315 42.1849 273.272 42.0769 273.185 41.9976C273.099 41.9184 272.976 41.8788 272.818 41.8788C272.667 41.8788 272.548 41.9184 272.461 41.9976C272.375 42.0769 272.332 42.1849 272.332 42.3218C272.332 42.4586 272.375 42.5667 272.461 42.6459C272.548 42.7251 272.667 42.7647 272.818 42.7647ZM277.022 49.8955V45.9844C277.022 45.6819 276.95 45.4622 276.806 45.3253C276.669 45.1885 276.443 45.1201 276.126 45.1201C275.888 45.1201 275.668 45.1525 275.467 45.2173C275.272 45.2821 275.088 45.3613 274.916 45.455V44.1585C275.074 44.0865 275.297 44.0144 275.585 43.9424C275.874 43.8704 276.212 43.8344 276.601 43.8344C276.997 43.8344 277.347 43.892 277.649 44.0072C277.959 44.1225 278.2 44.3169 278.373 44.5906C278.553 44.8572 278.643 45.2245 278.643 45.6927V49.8955H277.022ZM280.248 49.8955V43.9748H281.847V46.1897H281.89L283.727 43.9748H285.51V44.0288L281.847 48.0912V49.8955H280.248ZM283.868 49.8955V47.9399C283.868 47.5582 283.756 47.2845 283.533 47.1188C283.317 46.946 283 46.8595 282.582 46.8595L283.533 45.7359C283.965 45.7359 284.325 45.8223 284.613 45.9952C284.901 46.1681 285.117 46.4022 285.261 46.6975C285.413 46.9856 285.488 47.3169 285.488 47.6915V49.8955H283.868ZM288.892 50.0035C288.453 50.0035 288.082 49.9207 287.78 49.7551C287.484 49.5822 287.257 49.3265 287.099 48.988C286.948 48.6494 286.872 48.2353 286.872 47.7455V43.9748H288.493V47.4646C288.493 47.8607 288.572 48.1488 288.73 48.3289C288.889 48.509 289.119 48.599 289.422 48.599C289.804 48.599 290.099 48.4549 290.308 48.1668C290.517 47.8715 290.621 47.4177 290.621 46.8055V43.9748H292.242V49.8955H291.01L290.837 48.988H290.74C290.617 49.2761 290.405 49.5174 290.102 49.7118C289.807 49.9063 289.404 50.0035 288.892 50.0035ZM290.691 43.1537V40.7011H292.182V43.1537H290.691ZM295.423 49.8955V45.9844C295.423 45.6819 295.351 45.4622 295.207 45.3253C295.07 45.1885 294.843 45.1201 294.527 45.1201C294.289 45.1201 294.069 45.1525 293.868 45.2173C293.673 45.2821 293.489 45.3613 293.317 45.455V44.1585C293.475 44.0865 293.698 44.0144 293.986 43.9424C294.274 43.8704 294.613 43.8344 295.002 43.8344C295.398 43.8344 295.747 43.892 296.05 44.0072C296.36 44.1225 296.601 44.3169 296.774 44.5906C296.954 44.8572 297.044 45.2245 297.044 45.6927V49.8955H295.423ZM301.058 50.036C300.41 50.036 299.892 49.9603 299.503 49.8091C299.114 49.6506 298.829 49.4309 298.649 49.15C298.476 48.8691 298.39 48.545 298.39 48.1776C298.39 47.8607 298.437 47.605 298.53 47.4105C298.631 47.2161 298.757 47.0684 298.908 46.9676C299.067 46.8595 299.225 46.7875 299.384 46.7515V46.6867C299.218 46.629 299.06 46.5498 298.908 46.449C298.757 46.3481 298.631 46.2113 298.53 46.0384C298.437 45.8655 298.39 45.6495 298.39 45.3902C298.39 45.1237 298.451 44.8752 298.574 44.6447C298.703 44.4142 298.908 44.2305 299.189 44.0937C299.47 43.9496 299.841 43.8776 300.302 43.8776C300.525 43.8776 300.742 43.8956 300.95 43.9316C301.159 43.9604 301.321 44.0036 301.437 44.0612L301.188 45.1525C301.13 45.1381 301.051 45.1237 300.95 45.1092C300.857 45.0876 300.76 45.0768 300.659 45.0768C300.435 45.0768 300.27 45.1309 300.162 45.2389C300.054 45.3397 300 45.473 300 45.6387C300 45.8115 300.046 45.9448 300.14 46.0384C300.234 46.132 300.353 46.1969 300.497 46.2329C300.648 46.2689 300.803 46.2869 300.961 46.2869H301.188V47.2917H300.961C300.652 47.2917 300.417 47.3457 300.259 47.4538C300.108 47.5618 300.032 47.7383 300.032 47.9832C300.032 48.1128 300.061 48.2425 300.119 48.3721C300.183 48.4946 300.291 48.599 300.443 48.6854C300.594 48.7647 300.81 48.8043 301.091 48.8043C301.357 48.8043 301.566 48.7647 301.718 48.6854C301.869 48.6062 301.977 48.5018 302.042 48.3721C302.106 48.2353 302.139 48.084 302.139 47.9183V43.9748H303.76V47.8643C303.76 48.6062 303.54 49.1536 303.1 49.5066C302.668 49.8595 301.988 50.036 301.058 50.036Z" fill="#E16184"/>
<path d="M255.099 44.1174L249.487 49.7296L246.936 47.1786" stroke="#E16184" stroke-width="1.44056" stroke-linecap="round" stroke-linejoin="round"/>
<rect x="238.413" y="67.7063" width="77.0699" height="22.3287" rx="11.1643" fill="#E06285" fill-opacity="0.12"/>
<path d="M271.776 82.4481C270.897 82.4481 270.245 82.2356 269.82 81.8106C269.395 81.3785 269.183 80.741 269.183 79.8983C269.183 79.7542 269.187 79.5814 269.194 79.3797C269.208 79.1708 269.226 78.9871 269.248 78.8287H271.841V79.8551H270.771V80.0063C270.771 80.2944 270.807 80.5321 270.879 80.7194C270.951 80.8995 271.059 81.0327 271.203 81.1192C271.355 81.2056 271.542 81.2488 271.765 81.2488C272.01 81.2488 272.215 81.1948 272.381 81.0867C272.554 80.9787 272.684 80.795 272.77 80.5357C272.864 80.2764 272.91 79.9199 272.91 79.4661C272.91 79.0411 272.86 78.6882 272.759 78.4073C272.666 78.1192 272.503 77.9031 272.273 77.7591C272.05 77.615 271.74 77.543 271.344 77.543C271.128 77.543 270.904 77.5682 270.674 77.6186C270.443 77.6618 270.224 77.7194 270.015 77.7915C269.813 77.8635 269.637 77.9427 269.485 78.0292V76.6786C269.644 76.5922 269.838 76.5166 270.069 76.4517C270.307 76.3869 270.562 76.3365 270.836 76.3005C271.11 76.2645 271.38 76.2465 271.646 76.2465C272.345 76.2465 272.907 76.3761 273.332 76.6354C273.764 76.8875 274.077 77.2477 274.272 77.7158C274.473 78.184 274.574 78.7386 274.574 79.3797C274.574 80.0351 274.477 80.5934 274.283 81.0543C274.095 81.5081 273.796 81.8538 273.386 82.0915C272.975 82.3292 272.439 82.4481 271.776 82.4481ZM278.18 82.4481C277.302 82.4481 276.65 82.2356 276.225 81.8106C275.8 81.3785 275.587 80.741 275.587 79.8983C275.587 79.7542 275.591 79.5814 275.598 79.3797C275.613 79.1708 275.631 78.9871 275.652 78.8287H278.245V79.8551H277.176V80.0063C277.176 80.2944 277.212 80.5321 277.284 80.7194C277.356 80.8995 277.464 81.0327 277.608 81.1192C277.759 81.2056 277.946 81.2488 278.17 81.2488C278.415 81.2488 278.62 81.1948 278.785 81.0867C278.958 80.9787 279.088 80.795 279.174 80.5357C279.268 80.2764 279.315 79.9199 279.315 79.4661C279.315 79.0411 279.264 78.6882 279.164 78.4073C279.07 78.1192 278.908 77.9031 278.677 77.7591C278.454 77.615 278.144 77.543 277.748 77.543C277.532 77.543 277.309 77.5682 277.078 77.6186C276.848 77.6618 276.628 77.7194 276.419 77.7915C276.218 77.8635 276.041 77.9427 275.89 78.0292V76.6786C276.048 76.5922 276.243 76.5166 276.473 76.4517C276.711 76.3869 276.967 76.3365 277.24 76.3005C277.514 76.2645 277.784 76.2465 278.051 76.2465C278.749 76.2465 279.311 76.3761 279.736 76.6354C280.168 76.8875 280.482 77.2477 280.676 77.7158C280.878 78.184 280.979 78.7386 280.979 79.3797C280.979 80.0351 280.881 80.5934 280.687 81.0543C280.5 81.5081 280.201 81.8538 279.79 82.0915C279.38 82.3292 278.843 82.4481 278.18 82.4481ZM284.25 82.4157C283.811 82.4157 283.44 82.3328 283.137 82.1672C282.842 81.9943 282.615 81.7386 282.456 81.4001C282.305 81.0615 282.23 80.6474 282.23 80.1576V76.3869H283.85V79.8767C283.85 80.2728 283.929 80.5609 284.088 80.741C284.246 80.9211 284.477 81.0111 284.779 81.0111C285.161 81.0111 285.456 80.8671 285.665 80.5789C285.874 80.2836 285.979 79.8299 285.979 79.2176V76.3869H287.599V82.3076H286.368L286.195 81.4001H286.097C285.975 81.6882 285.763 81.9295 285.46 82.1239C285.165 82.3184 284.761 82.4157 284.25 82.4157ZM289.592 77.4673V75.8899C289.592 75.6162 289.618 75.3965 289.668 75.2309C289.718 75.058 289.787 74.9175 289.873 74.8095C289.96 74.7015 290.05 74.6114 290.143 74.5394L290.133 74.4962H288.458L288.761 73.3293H292.196V74.4962C291.93 74.4962 291.699 74.5826 291.505 74.7555C291.31 74.9284 291.213 75.2453 291.213 75.7063V77.4673H289.592ZM291.094 82.4157C290.77 82.4157 290.496 82.3652 290.273 82.2644C290.05 82.1636 289.881 82.0123 289.765 81.8106C289.65 81.6017 289.592 81.3424 289.592 81.0327V76.3869H291.213V80.8382C291.213 80.9751 291.242 81.0759 291.299 81.1408C291.364 81.2056 291.462 81.238 291.591 81.238C291.649 81.238 291.71 81.2308 291.775 81.2164C291.84 81.202 291.901 81.184 291.959 81.1624L292.11 82.1996C291.973 82.2716 291.818 82.3256 291.645 82.3616C291.472 82.3977 291.289 82.4157 291.094 82.4157ZM296.289 82.3076V78.4613C296.289 78.1156 296.195 77.8671 296.008 77.7158C295.82 77.5646 295.532 77.4889 295.143 77.4889C294.769 77.4889 294.401 77.5466 294.041 77.6618C293.688 77.7699 293.382 77.8995 293.123 78.0508V76.711C293.332 76.6102 293.627 76.5094 294.009 76.4085C294.391 76.3005 294.834 76.2465 295.338 76.2465C295.705 76.2465 296.04 76.2861 296.343 76.3653C296.652 76.4373 296.922 76.5634 297.153 76.7435C297.383 76.9163 297.56 77.1504 297.682 77.4457C297.812 77.7338 297.877 78.094 297.877 78.5261V82.3076H296.289ZM294.517 82.4157C293.897 82.4157 293.418 82.268 293.08 81.9727C292.748 81.6774 292.583 81.2632 292.583 80.7302C292.583 80.154 292.788 79.693 293.199 79.3473C293.616 79.0015 294.272 78.7927 295.165 78.7206L296.548 78.6126V79.7794L295.349 79.8983C294.916 79.9415 294.614 80.0279 294.441 80.1576C294.275 80.2872 294.193 80.4601 294.193 80.6762C294.193 80.8923 294.261 81.0543 294.398 81.1624C294.542 81.2704 294.726 81.3244 294.949 81.3244C295.035 81.3244 295.122 81.3172 295.208 81.3028C295.295 81.2812 295.374 81.2596 295.446 81.238L295.586 82.2536C295.449 82.304 295.287 82.3436 295.1 82.3724C294.913 82.4013 294.718 82.4157 294.517 82.4157ZM301.406 82.4157C300.966 82.4157 300.595 82.3328 300.293 82.1672C299.998 81.9943 299.771 81.7386 299.612 81.4001C299.461 81.0615 299.385 80.6474 299.385 80.1576V76.3869H301.006V79.8767C301.006 80.2728 301.085 80.5609 301.244 80.741C301.402 80.9211 301.633 81.0111 301.935 81.0111C302.317 81.0111 302.612 80.8671 302.821 80.5789C303.03 80.2836 303.134 79.8299 303.134 79.2176V76.3869H304.755V82.3076H303.523L303.351 81.4001H303.253C303.131 81.6882 302.918 81.9295 302.616 82.1239C302.321 82.3184 301.917 82.4157 301.406 82.4157ZM302.751 75.8035C302.693 75.7027 302.646 75.573 302.61 75.4145C302.567 75.2561 302.545 75.0976 302.545 74.9392C302.545 74.7375 302.585 74.5538 302.664 74.3881C302.736 74.2225 302.87 74.0928 303.064 73.9992C303.251 73.8984 303.511 73.8479 303.842 73.8479H305.409V74.9392H304.371C304.235 74.9392 304.13 74.9644 304.058 75.0148C303.979 75.058 303.939 75.1408 303.939 75.2633C303.939 75.3137 303.946 75.3677 303.961 75.4253C303.975 75.4758 303.997 75.5298 304.026 75.5874L302.751 75.8035Z" fill="#E16184"/>
<path d="M255.099 76.5298L249.487 82.142L246.936 79.591" stroke="#E16184" stroke-width="1.44056" stroke-linecap="round" stroke-linejoin="round"/>
</svg>
