<svg width="349" height="209" viewBox="0 0 349 209" fill="none" xmlns="http://www.w3.org/2000/svg">
<rect y="7" width="43" height="12.8333" rx="1" fill="#34C759"/>
<path d="M0 0.999999C0 0.447714 0.447715 0 1 0H42C42.5523 0 43 0.447715 43 1V3.66667C43 4.21895 42.5523 4.66667 42 4.66667H1C0.447716 4.66667 0 4.21895 0 3.66667V0.999999Z" fill="#34C759" fill-opacity="0.46"/>
<rect y="22.1666" width="43" height="4.66667" rx="1" fill="#34C759" fill-opacity="0.46"/>
<rect x="51" y="172.75" width="43" height="12.375" rx="1" fill="#34C759"/>
<path d="M51 167C51 166.448 51.4477 166 52 166L93 166C93.5523 166 94 166.448 94 167V169.5C94 170.052 93.5523 170.5 93 170.5L52 170.5C51.4477 170.5 51 170.052 51 169.5L51 167Z" fill="#34C759" fill-opacity="0.46"/>
<rect x="51" y="187.375" width="43" height="4.5" rx="1" fill="#34C759" fill-opacity="0.46"/>
<rect x="255.25" width="43" height="12.375" rx="1" transform="rotate(90 255.25 0)" fill="#34C759"/>
<path d="M261 -4.37114e-08C261.552 -1.95703e-08 262 0.447715 262 1L262 42C262 42.5523 261.552 43 261 43L258.5 43C257.948 43 257.5 42.5523 257.5 42L257.5 1C257.5 0.447716 257.948 -1.77131e-07 258.5 -1.5299e-07L261 -4.37114e-08Z" fill="#34C759" fill-opacity="0.46"/>
<rect x="240.625" width="43" height="4.5" rx="1" transform="rotate(90 240.625 0)" fill="#34C759" fill-opacity="0.46"/>
<rect x="51" y="141.75" width="43" height="12.375" rx="1" fill="#34C759"/>
<path d="M51 136C51 135.448 51.4477 135 52 135L93 135C93.5523 135 94 135.448 94 136V138.5C94 139.052 93.5523 139.5 93 139.5L52 139.5C51.4477 139.5 51 139.052 51 138.5L51 136Z" fill="#34C759" fill-opacity="0.46"/>
<rect x="51" y="156.375" width="43" height="4.5" rx="1" fill="#34C759" fill-opacity="0.46"/>
<rect x="51" y="110.75" width="43" height="12.375" rx="1" fill="#B4B4B4"/>
<path d="M51 105C51 104.448 51.4477 104 52 104L93 104C93.5523 104 94 104.448 94 105V107.5C94 108.052 93.5523 108.5 93 108.5L52 108.5C51.4477 108.5 51 108.052 51 107.5L51 105Z" fill="#D9D9D9" fill-opacity="0.47"/>
<rect x="51" y="125.375" width="43" height="4.5" rx="1" fill="#D9D9D9" fill-opacity="0.47"/>
<rect x="286.25" width="43" height="12.375" rx="1" transform="rotate(90 286.25 0)" fill="#B4B4B4"/>
<path d="M292 -4.37114e-08C292.552 -1.95703e-08 293 0.447715 293 1L293 42C293 42.5523 292.552 43 292 43L289.5 43C288.948 43 288.5 42.5523 288.5 42L288.5 1C288.5 0.447716 288.948 -1.77131e-07 289.5 -1.5299e-07L292 -4.37114e-08Z" fill="#D9D9D9" fill-opacity="0.47"/>
<rect x="271.625" width="43" height="4.5" rx="1" transform="rotate(90 271.625 0)" fill="#D9D9D9" fill-opacity="0.47"/>
<rect x="317.25" width="43" height="12.375" rx="1" transform="rotate(90 317.25 0)" fill="#B4B4B4"/>
<path d="M323 -4.37114e-08C323.552 -1.95703e-08 324 0.447715 324 1L324 42C324 42.5523 323.552 43 323 43L320.5 43C319.948 43 319.5 42.5523 319.5 42L319.5 1C319.5 0.447716 319.948 -1.77131e-07 320.5 -1.5299e-07L323 -4.37114e-08Z" fill="#D9D9D9" fill-opacity="0.47"/>
<rect x="302.625" width="43" height="4.5" rx="1" transform="rotate(90 302.625 0)" fill="#D9D9D9" fill-opacity="0.47"/>
<rect x="103" y="68.75" width="43" height="12.375" rx="1" fill="#B4B4B4"/>
<path d="M103 63C103 62.4477 103.448 62 104 62L145 62C145.552 62 146 62.4477 146 63V65.5C146 66.0523 145.552 66.5 145 66.5H104C103.448 66.5 103 66.0523 103 65.5V63Z" fill="#D9D9D9" fill-opacity="0.47"/>
<rect x="103" y="83.375" width="43" height="4.5" rx="1" fill="#D9D9D9" fill-opacity="0.47"/>
<rect x="52" y="68.75" width="42" height="12.375" rx="1" fill="#B4B4B4"/>
<path d="M52 63C52 62.4477 52.4477 62 53 62L93 62C93.5523 62 94 62.4477 94 63V65.5C94 66.0523 93.5523 66.5 93 66.5H53C52.4477 66.5 52 66.0523 52 65.5V63Z" fill="#D9D9D9" fill-opacity="0.47"/>
<rect x="52" y="83.375" width="42" height="4.5" rx="1" fill="#D9D9D9" fill-opacity="0.47"/>
<rect x="186.95" y="172.187" width="43" height="12.8333" rx="1" transform="rotate(-45 186.95 172.187)" fill="#34C759"/>
<path d="M182.707 167.945C182.317 167.554 182.317 166.921 182.707 166.531L211.698 137.539C212.089 137.149 212.722 137.149 213.113 137.539L214.998 139.425C215.389 139.815 215.389 140.448 214.998 140.839L186.007 169.83C185.616 170.221 184.983 170.221 184.593 169.83L182.707 167.945Z" fill="#34C759" fill-opacity="0.46"/>
<rect x="197.674" y="182.912" width="43" height="4.66667" rx="1" transform="rotate(-45 197.674 182.912)" fill="#34C759" fill-opacity="0.46"/>
<rect x="52" y="7" width="42" height="12.8333" rx="1" fill="#34C759"/>
<path d="M52 0.999999C52 0.447714 52.4477 0 53 0H93C93.5523 0 94 0.447715 94 1V3.66667C94 4.21895 93.5523 4.66667 93 4.66667H53C52.4477 4.66667 52 4.21895 52 3.66667V0.999999Z" fill="#34C759" fill-opacity="0.46"/>
<rect x="52" y="22.1666" width="42" height="4.66667" rx="1" fill="#34C759" fill-opacity="0.46"/>
<rect x="103" y="141.75" width="42" height="12.375" rx="1" fill="#34C759"/>
<path d="M103 136C103 135.448 103.448 135 104 135L144 135C144.552 135 145 135.448 145 136V138.5C145 139.052 144.552 139.5 144 139.5L104 139.5C103.448 139.5 103 139.052 103 138.5V136Z" fill="#34C759" fill-opacity="0.46"/>
<rect x="103" y="156.375" width="42" height="4.5" rx="1" fill="#34C759" fill-opacity="0.46"/>
<rect x="103" y="110.75" width="42" height="12.375" rx="1" fill="#34C759"/>
<path d="M103 105C103 104.448 103.448 104 104 104L144 104C144.552 104 145 104.448 145 105V107.5C145 108.052 144.552 108.5 144 108.5L104 108.5C103.448 108.5 103 108.052 103 107.5V105Z" fill="#34C759" fill-opacity="0.46"/>
<rect x="103" y="125.375" width="42" height="4.5" rx="1" fill="#34C759" fill-opacity="0.46"/>
<rect x="223.719" y="135.418" width="42" height="12.8333" rx="1" transform="rotate(-45 223.719 135.418)" fill="#34C759"/>
<path d="M219.477 131.175C219.086 130.785 219.086 130.151 219.477 129.761L247.761 101.477C248.151 101.086 248.785 101.086 249.175 101.477L251.061 103.362C251.451 103.753 251.451 104.386 251.061 104.776L222.776 133.061C222.386 133.451 221.753 133.451 221.362 133.061L219.477 131.175Z" fill="#34C759" fill-opacity="0.46"/>
<rect x="234.444" y="146.142" width="42" height="4.66667" rx="1" transform="rotate(-45 234.444 146.142)" fill="#34C759" fill-opacity="0.46"/>
<rect x="200.95" y="112.648" width="42" height="12.8333" rx="1" transform="rotate(-45 200.95 112.648)" fill="#34C759"/>
<path d="M196.707 108.406C196.317 108.015 196.317 107.382 196.707 106.991L224.991 78.7071C225.382 78.3166 226.015 78.3166 226.406 78.7071L228.291 80.5927C228.682 80.9832 228.682 81.6164 228.291 82.0069L200.007 110.291C199.616 110.682 198.983 110.682 198.593 110.291L196.707 108.406Z" fill="#34C759" fill-opacity="0.46"/>
<rect x="211.674" y="123.373" width="42" height="4.66667" rx="1" transform="rotate(-45 211.674 123.373)" fill="#34C759" fill-opacity="0.46"/>
<rect x="176.95" y="89.6482" width="42" height="12.8333" rx="1" transform="rotate(-45 176.95 89.6482)" fill="#34C759"/>
<path d="M172.707 85.4056C172.317 85.0151 172.317 84.3819 172.707 83.9914L200.991 55.7071C201.382 55.3166 202.015 55.3166 202.406 55.7071L204.291 57.5927C204.682 57.9832 204.682 58.6164 204.291 59.0069L176.007 87.2912C175.616 87.6817 174.983 87.6817 174.593 87.2912L172.707 85.4056Z" fill="#34C759" fill-opacity="0.46"/>
<rect x="187.674" y="100.373" width="42" height="4.66667" rx="1" transform="rotate(-45 187.674 100.373)" fill="#34C759" fill-opacity="0.46"/>
<rect x="103" y="7" width="43" height="12.8333" rx="1" fill="#34C759"/>
<path d="M103 0.999999C103 0.447714 103.448 0 104 0H145C145.552 0 146 0.447715 146 1V3.66667C146 4.21895 145.552 4.66667 145 4.66667H104C103.448 4.66667 103 4.21895 103 3.66667V0.999999Z" fill="#34C759" fill-opacity="0.46"/>
<rect x="103" y="22.1666" width="43" height="4.66667" rx="1" fill="#34C759" fill-opacity="0.46"/>
<rect x="103" y="37" width="43" height="12.8333" rx="1" fill="#34C759"/>
<path d="M103 31C103 30.4477 103.448 30 104 30H145C145.552 30 146 30.4477 146 31V33.6667C146 34.219 145.552 34.6667 145 34.6667H104C103.448 34.6667 103 34.219 103 33.6667V31Z" fill="#34C759" fill-opacity="0.46"/>
<rect x="103" y="52.1666" width="43" height="4.66667" rx="1" fill="#34C759" fill-opacity="0.46"/>
<rect x="52" y="37" width="42" height="12.8333" rx="1" fill="#34C759"/>
<path d="M52 31C52 30.4477 52.4477 30 53 30H93C93.5523 30 94 30.4477 94 31V33.6667C94 34.219 93.5523 34.6667 93 34.6667H53C52.4477 34.6667 52 34.219 52 33.6667V31Z" fill="#34C759" fill-opacity="0.46"/>
<rect x="52" y="52.1666" width="42" height="4.66667" rx="1" fill="#34C759" fill-opacity="0.46"/>
<rect x="259.782" y="99.3553" width="43" height="12.8333" rx="1" transform="rotate(-45 259.782 99.3553)" fill="#34C759"/>
<path d="M255.539 95.1127C255.149 94.7222 255.149 94.0891 255.539 93.6985L284.531 64.7072C284.921 64.3166 285.554 64.3166 285.945 64.7072L287.83 66.5928C288.221 66.9833 288.221 67.6165 287.83 68.007L258.839 96.9984C258.448 97.3889 257.815 97.3889 257.425 96.9984L255.539 95.1127Z" fill="#34C759" fill-opacity="0.46"/>
<rect x="270.506" y="110.08" width="43" height="4.66667" rx="1" transform="rotate(-45 270.506 110.08)" fill="#34C759" fill-opacity="0.46"/>
<rect x="208.693" y="193.931" width="43" height="12.375" rx="1" transform="rotate(-45 208.693 193.931)" fill="#FFC830"/>
<path d="M204.627 189.865C204.237 189.474 204.237 188.841 204.627 188.451L233.619 159.459C234.009 159.069 234.642 159.069 235.033 159.459L236.801 161.227C237.191 161.618 237.191 162.251 236.801 162.641L207.809 191.633C207.419 192.023 206.786 192.023 206.395 191.633L204.627 189.865Z" fill="#FFC830" fill-opacity="0.46"/>
<rect x="219.035" y="204.272" width="43" height="4.5" rx="1" transform="rotate(-45 219.035 204.272)" fill="#FFC830" fill-opacity="0.46"/>
<rect x="210.75" y="43" width="43" height="12.375" rx="1" transform="rotate(-90 210.75 43)" fill="#FFC830"/>
<path d="M205 43C204.448 43 204 42.5523 204 42L204 1C204 0.447716 204.448 -1.95703e-08 205 -4.37114e-08L207.5 -1.5299e-07C208.052 -1.77131e-07 208.5 0.447716 208.5 1L208.5 42C208.5 42.5523 208.052 43 207.5 43L205 43Z" fill="#FFC830" fill-opacity="0.46"/>
<rect x="225.375" y="43" width="43" height="4.5" rx="1" transform="rotate(-90 225.375 43)" fill="#FFC830" fill-opacity="0.46"/>
<rect x="21.75" y="75" width="43" height="12.375" rx="1" transform="rotate(-90 21.75 75)" fill="#FFC830"/>
<path d="M16 75C15.4477 75 15 74.5523 15 74L15 33C15 32.4477 15.4477 32 16 32L18.5 32C19.0523 32 19.5 32.4477 19.5 33L19.5 74C19.5 74.5523 19.0523 75 18.5 75L16 75Z" fill="#FFC830" fill-opacity="0.46"/>
<rect x="36.375" y="75" width="43" height="4.5" rx="1" transform="rotate(-90 36.375 75)" fill="#FFC830" fill-opacity="0.46"/>
<rect x="43" y="156.25" width="43" height="12.375" rx="1" transform="rotate(180 43 156.25)" fill="#FFC830"/>
<path d="M43 162C43 162.552 42.5523 163 42 163L1 163C0.447716 163 -3.91405e-08 162.552 -8.74228e-08 162L-3.0598e-07 159.5C-3.54262e-07 158.948 0.447715 158.5 1 158.5L42 158.5C42.5523 158.5 43 158.948 43 159.5L43 162Z" fill="#FFC830" fill-opacity="0.46"/>
<rect x="43" y="141.625" width="43" height="4.5" rx="1" transform="rotate(180 43 141.625)" fill="#FFC830" fill-opacity="0.46"/>
<rect x="43" y="124.25" width="43" height="12.375" rx="1" transform="rotate(180 43 124.25)" fill="#FFC830"/>
<path d="M43 130C43 130.552 42.5523 131 42 131L1 131C0.447716 131 -3.91405e-08 130.552 -8.74228e-08 130L-3.0598e-07 127.5C-3.54262e-07 126.948 0.447715 126.5 1 126.5L42 126.5C42.5523 126.5 43 126.948 43 127.5L43 130Z" fill="#FFC830" fill-opacity="0.46"/>
<rect x="43" y="109.625" width="43" height="4.5" rx="1" transform="rotate(180 43 109.625)" fill="#FFC830" fill-opacity="0.46"/>
<rect x="245.463" y="157.161" width="42" height="12.375" rx="1" transform="rotate(-45 245.463 157.161)" fill="#34C759"/>
<path d="M241.397 153.095C241.006 152.705 241.006 152.072 241.397 151.681L269.681 123.397C270.072 123.006 270.705 123.006 271.095 123.397L272.863 125.165C273.254 125.555 273.254 126.188 272.863 126.579L244.579 154.863C244.188 155.254 243.555 155.254 243.165 154.863L241.397 153.095Z" fill="#34C759" fill-opacity="0.46"/>
<rect x="255.804" y="167.503" width="42" height="4.5" rx="1" transform="rotate(-45 255.804 167.503)" fill="#34C759" fill-opacity="0.46"/>
<rect x="281.525" y="121.099" width="43" height="12.375" rx="1" transform="rotate(-45 281.525 121.099)" fill="#FFC830"/>
<path d="M277.459 117.033C277.069 116.643 277.069 116.009 277.459 115.619L306.451 86.6274C306.841 86.2369 307.474 86.2369 307.865 86.6274L309.633 88.3952C310.023 88.7857 310.023 89.4189 309.633 89.8094L280.641 118.801C280.251 119.191 279.618 119.191 279.227 118.801L277.459 117.033Z" fill="#FFC830" fill-opacity="0.46"/>
<rect x="291.867" y="131.44" width="43" height="4.5" rx="1" transform="rotate(-45 291.867 131.44)" fill="#FFC830" fill-opacity="0.46"/>
<rect x="268.09" y="179.789" width="42" height="12.375" rx="1" transform="rotate(-45 268.09 179.789)" fill="#FFC830"/>
<path d="M264.024 175.723C263.634 175.332 263.634 174.699 264.024 174.309L292.309 146.024C292.699 145.634 293.332 145.634 293.723 146.024L295.491 147.792C295.881 148.183 295.881 148.816 295.491 149.206L267.206 177.491C266.816 177.881 266.183 177.881 265.792 177.491L264.024 175.723Z" fill="#FFC830" fill-opacity="0.46"/>
<rect x="278.432" y="190.13" width="42" height="4.5" rx="1" transform="rotate(-45 278.432 190.13)" fill="#FFC830" fill-opacity="0.46"/>
<rect x="304.153" y="143.726" width="43" height="12.375" rx="1" transform="rotate(-45 304.153 143.726)" fill="#FF3B30"/>
<path d="M300.087 139.66C299.696 139.27 299.696 138.637 300.087 138.246L329.078 109.255C329.469 108.864 330.102 108.864 330.492 109.255L332.26 111.023C332.651 111.413 332.651 112.046 332.26 112.437L303.269 141.428C302.878 141.819 302.245 141.819 301.855 141.428L300.087 139.66Z" fill="#FF3B30" fill-opacity="0.46"/>
<rect x="314.494" y="154.068" width="43" height="4.5" rx="1" transform="rotate(-45 314.494 154.068)" fill="#FF3B30" fill-opacity="0.46"/>
<rect x="146" y="186.25" width="43" height="12.375" rx="1" transform="rotate(180 146 186.25)" fill="#FF3B30"/>
<path d="M146 192C146 192.552 145.552 193 145 193L104 193C103.448 193 103 192.552 103 192L103 189.5C103 188.948 103.448 188.5 104 188.5L145 188.5C145.552 188.5 146 188.948 146 189.5L146 192Z" fill="#FF3B30" fill-opacity="0.46"/>
<rect x="146" y="171.625" width="43" height="4.5" rx="1" transform="rotate(180 146 171.625)" fill="#FF3B30" fill-opacity="0.46"/>
<rect x="179.75" y="43" width="43" height="12.375" rx="1" transform="rotate(-90 179.75 43)" fill="#FF3B30"/>
<path d="M174 43C173.448 43 173 42.5523 173 42L173 1C173 0.447716 173.448 -1.95703e-08 174 -4.37114e-08L176.5 -1.5299e-07C177.052 -1.77131e-07 177.5 0.447716 177.5 1L177.5 42C177.5 42.5523 177.052 43 176.5 43L174 43Z" fill="#FF3B30" fill-opacity="0.46"/>
<rect x="194.375" y="43" width="43" height="4.5" rx="1" transform="rotate(-90 194.375 43)" fill="#FF3B30" fill-opacity="0.46"/>
<rect x="43" y="187.25" width="43" height="12.375" rx="1" transform="rotate(180 43 187.25)" fill="#FF3B30"/>
<path d="M43 193C43 193.552 42.5523 194 42 194L1 194C0.447716 194 -3.91405e-08 193.552 -8.74228e-08 193L-3.0598e-07 190.5C-3.54262e-07 189.948 0.447715 189.5 1 189.5L42 189.5C42.5523 189.5 43 189.948 43 190.5L43 193Z" fill="#FF3B30" fill-opacity="0.46"/>
<rect x="43" y="172.625" width="43" height="4.5" rx="1" transform="rotate(180 43 172.625)" fill="#FF3B30" fill-opacity="0.46"/>
</svg>
