<?xml version="1.0" encoding="UTF-8" standalone="no"?><!DOCTYPE svg PUBLIC "-//W3C//DTD SVG 1.1//EN" "http://www.w3.org/Graphics/SVG/1.1/DTD/svg11.dtd"><svg width="100%" height="100%" viewBox="0 0 111 48" version="1.1" xmlns="http://www.w3.org/2000/svg" xmlns:xlink="http://www.w3.org/1999/xlink" xml:space="preserve" xmlns:serif="http://www.serif.com/" style="fill-rule:evenodd;clip-rule:evenodd;stroke-linecap:round;stroke-linejoin:round;stroke-miterlimit:1.5;"><path d="M110.616,5.878l-0,35.347c-0,3.244 -2.634,5.878 -5.878,5.878l-98.86,-0c-3.244,-0 -5.878,-2.634 -5.878,-5.878l0,-35.347c0,-3.244 2.634,-5.878 5.878,-5.878l98.86,0c3.244,0 5.878,2.634 5.878,5.878Z" style="fill:#edebeb;"/><path d="M68.318,12.293c0,0.663 -0.538,1.202 -1.202,1.202l-23.616,0c-0.664,0 -1.203,-0.539 -1.203,-1.202c0,-0.664 0.539,-1.203 1.203,-1.203l23.616,0c0.664,0 1.202,0.539 1.202,1.203Z" style="fill:#4b4949;fill-opacity:0.2;"/><path d="M68.318,34.782c0,0.648 -0.526,1.174 -1.174,1.174l-23.673,-0c-0.648,-0 -1.174,-0.526 -1.174,-1.174c0,-0.648 0.526,-1.174 1.174,-1.174l23.673,-0c0.648,-0 1.174,0.526 1.174,1.174Z" style="fill:#4b4949;fill-opacity:0.2;"/><path d="M66.909,19.799l0,7.187c0,0.997 -0.809,1.807 -1.806,1.807l-20.108,-0c-0.997,-0 -1.806,-0.81 -1.806,-1.807l-0,-7.187c-0,-0.997 0.809,-1.806 1.806,-1.806l20.108,-0c0.997,-0 1.806,0.809 1.806,1.806Z" style="fill:none;stroke:#4b4949;stroke-opacity:0.2;stroke-width:2.29px;"/></svg>