<?xml version="1.0" encoding="UTF-8" standalone="no"?><!DOCTYPE svg PUBLIC "-//W3C//DTD SVG 1.1//EN" "http://www.w3.org/Graphics/SVG/1.1/DTD/svg11.dtd"><svg width="100%" height="100%" viewBox="0 0 1291 135" version="1.1" xmlns="http://www.w3.org/2000/svg" xmlns:xlink="http://www.w3.org/1999/xlink" xml:space="preserve" xmlns:serif="http://www.serif.com/" style="fill-rule:evenodd;clip-rule:evenodd;stroke-linejoin:round;stroke-miterlimit:2;"><path d="M244.197,117.255c-24.616,0 -39.92,-15.52 -39.92,-41.219c0,-25.411 15.304,-41.148 39.776,-41.148c16.242,0 29.525,7.291 34.362,18.625c1.01,2.165 1.588,4.548 1.588,6.497c-0,6.136 -5.126,9.673 -10.973,9.673c-4.909,-0 -8.013,-1.949 -10.467,-6.064c-3.682,-6.425 -7.797,-9.24 -13.572,-9.24c-9.384,0 -14.798,7.724 -14.798,21.657c-0,14.076 5.269,21.8 14.654,21.8c6.497,0 10.467,-3.465 13.427,-8.085c3.321,-4.836 6.136,-7.074 11.55,-7.074c5.703,-0 10.684,3.681 10.684,10.034c-0,1.949 -0.505,4.115 -1.805,6.641c-5.197,10.612 -19.057,17.903 -34.506,17.903Zm69.879,-0.722c-14.655,0 -26.421,-9.673 -26.421,-23.894c-0,-14.727 11.333,-22.956 31.69,-24.183l18.408,-1.083l0,-4.476c0,-6.28 -4.475,-9.745 -11.189,-9.745c-5.486,-0 -8.518,1.588 -13.427,6.93c-2.96,2.96 -6.208,4.403 -10.106,4.403c-6.136,0 -10.468,-3.826 -10.468,-9.312c0,-1.805 0.217,-3.104 0.795,-4.62c3.32,-9.745 16.458,-15.665 34.506,-15.665c21.006,0 34.939,10.756 34.939,26.566l-0,42.735c-0,8.735 -5.27,12.85 -12.561,12.85c-6.786,-0 -11.622,-3.538 -12.344,-11.045l-0,-1.805l-0.506,0c-4.259,7.941 -13.86,12.344 -23.316,12.344Zm9.095,-17.614c7.797,0 14.582,-4.764 14.582,-11.766l0,-5.415l-14.293,0.939c-6.713,0.505 -10.539,3.609 -10.539,8.229c-0,4.981 4.114,8.013 10.25,8.013Zm64.681,18.12c-7.508,-0 -12.849,-4.332 -12.849,-13.283l-0,-55.802c-0,-8.085 4.547,-12.849 12.416,-12.849c7.868,-0 12.994,4.764 12.994,12.921l-0,2.96l0.505,0c4.115,-10.395 11.767,-15.737 23.822,-15.737c17.542,0 27.287,10.973 27.287,29.67l0,38.837c0,8.951 -5.269,13.283 -12.777,13.283c-7.507,-0 -12.777,-4.332 -12.777,-13.283l-0,-33.351c-0,-8.951 -4.259,-14.293 -12.633,-14.293c-8.157,-0 -13.211,6.136 -13.211,14.798l0,32.846c0,8.951 -5.342,13.283 -12.777,13.283Zm82.583,-22.74l0,-38.621l-2.815,0c-5.703,0 -9.457,-3.753 -9.457,-9.456c0,-5.775 3.754,-9.457 9.457,-9.457l2.815,0l0,-6.28c0,-8.302 4.693,-13.283 12.85,-13.283c8.085,0 12.777,4.981 12.777,13.283l0,6.28l6.209,0c5.702,0 9.456,3.754 9.456,9.457c0,5.703 -3.754,9.456 -9.456,9.456l-6.209,0l0,32.991c0,4.908 1.661,6.857 5.27,7.218l1.588,0.217c5.703,0.65 9.024,3.176 9.024,9.096c-0,7.435 -8.085,11.189 -17.975,11.189l-0.65,-0c-15.159,-0 -22.884,-7.508 -22.884,-22.09Zm87.565,22.956c-25.194,0 -40.137,-15.232 -40.137,-40.786c0,-25.483 15.16,-41.581 39.126,-41.581c23.389,0 38.765,15.449 38.765,36.672c0,6.497 -3.681,10.106 -10.323,10.106l-42.735,0l0,1.444c0,9.529 6.28,16.026 15.52,16.026c7.003,-0 11.839,-2.238 17.542,-8.013c2.671,-2.527 4.765,-3.393 7.941,-3.393c5.198,0 9.601,3.321 9.601,8.951c0,1.95 -0.577,3.899 -1.732,5.775c-5.198,9.241 -17.903,14.799 -33.568,14.799Zm-14.943,-50.171l28.587,0c-0.434,-8.518 -6.136,-14.004 -14.149,-14.004c-7.941,-0 -13.788,5.775 -14.438,14.004Zm100.342,50.171c-25.194,0 -40.137,-15.232 -40.137,-40.786c0,-25.483 15.16,-41.581 39.126,-41.581c23.389,0 38.765,15.449 38.765,36.672c0,6.497 -3.681,10.106 -10.323,10.106l-42.735,0l-0,1.444c-0,9.529 6.28,16.026 15.52,16.026c7.003,-0 11.839,-2.238 17.542,-8.013c2.671,-2.527 4.764,-3.393 7.941,-3.393c5.197,0 9.601,3.321 9.601,8.951c-0,1.95 -0.578,3.899 -1.733,5.775c-5.197,9.241 -17.902,14.799 -33.567,14.799Zm-14.943,-50.171l28.586,0c-0.433,-8.518 -6.136,-14.004 -14.149,-14.004c-7.94,-0 -13.788,5.775 -14.437,14.004Zm75.437,49.955c-7.508,-0 -12.85,-4.332 -12.85,-13.283l0,-55.802c0,-8.085 4.548,-12.849 12.416,-12.849c7.869,-0 12.994,4.764 12.994,12.921l0,2.96l0.506,0c4.114,-10.395 11.766,-15.737 23.822,-15.737c17.542,0 27.287,10.973 27.287,29.67l-0,38.837c-0,8.951 -5.27,13.283 -12.777,13.283c-7.508,-0 -12.778,-4.332 -12.778,-13.283l0,-33.351c0,-8.951 -4.259,-14.293 -12.633,-14.293c-8.157,-0 -13.21,6.136 -13.21,14.798l-0,32.846c-0,8.951 -5.342,13.283 -12.777,13.283Zm-602.756,-105.584l2.829,0c1.216,0.001 2.367,0.552 3.13,1.499c0.763,0.947 1.056,2.189 0.796,3.378l-4.024,18.433c-0.947,4.337 -4.786,7.43 -9.226,7.431l-33.153,0.006c-8.156,0 -15.977,3.24 -21.744,9.007c-12.001,12.001 -12.001,31.487 -0,43.487c5.767,5.767 13.588,9.007 21.744,9.007l22.375,0.003c1.216,0 2.367,0.551 3.13,1.498c0.762,0.947 1.055,2.189 0.796,3.377l-4.019,18.441c-0.946,4.34 -4.789,7.435 -9.231,7.434l-13.051,-0.003c-16.311,0 -31.954,-6.479 -43.488,-18.013c-24.001,-24.001 -24.001,-62.973 0,-86.975c9.489,-9.489 21.76,-15.557 34.896,-17.41c-0.01,-0.2 -0.015,-0.401 -0.015,-0.603c-0,-6.321 5.131,-11.452 11.452,-11.452c6.32,0 11.452,5.131 11.452,11.452l-0,0.001l2.447,0l0,-0.001c0,-6.321 5.132,-11.452 11.452,-11.452c6.321,0 11.452,5.131 11.452,11.452l0,0.003Zm81.652,80.257c4.663,1.957 8.045,6.108 9.02,11.071c0.975,4.962 -0.585,10.084 -4.161,13.66c-0,0 -0.001,0.001 -0.001,0.001c-11.534,11.534 -27.177,18.013 -43.488,18.013l-42.477,-0.003c-1.216,-0 -2.367,-0.551 -3.13,-1.499c-0.763,-0.947 -1.056,-2.189 -0.796,-3.378l4.024,-18.433c0.947,-4.337 4.786,-7.429 9.226,-7.43l33.153,-0.007c8.156,-0 15.977,-3.24 21.744,-9.007c0.54,-0.539 1.055,-1.094 1.546,-1.662c2.925,-3.403 7.711,-4.53 11.847,-2.792c1.11,0.466 2.287,0.96 3.493,1.466Zm-1.097,-31.807c-4.432,1.527 -9.337,-0.118 -11.954,-4.008c-1.096,-1.657 -2.377,-3.226 -3.835,-4.684c-5.767,-5.767 -13.588,-9.007 -21.744,-9.007l-22.375,-0.003c-1.216,-0 -2.367,-0.551 -3.13,-1.498c-0.762,-0.947 -1.055,-2.189 -0.796,-3.377l4.019,-18.441c0.946,-4.34 4.789,-7.434 9.231,-7.434l13.051,0.003c16.311,-0 31.954,6.479 43.488,18.013c1.697,1.697 3.274,3.469 4.732,5.306c3.054,3.88 4.041,9 2.647,13.737c-1.393,4.738 -4.995,8.508 -9.664,10.116c-2.177,0.763 -3.67,1.277 -3.67,1.277Zm-127.303,5.713c3.643,-0 6.6,2.957 6.6,6.6c0,3.643 -2.957,6.6 -6.6,6.6c-3.642,-0 -6.6,-2.957 -6.6,-6.6c0,-3.643 2.958,-6.6 6.6,-6.6Zm19.889,-0c3.643,-0 6.601,2.957 6.601,6.6c-0,3.643 -2.958,6.6 -6.601,6.6c-3.642,-0 -6.6,-2.957 -6.6,-6.6c0,-3.643 2.958,-6.6 6.6,-6.6Z" style="fill:#ee7596;"/><clipPath id="_clip1"><path d="M244.197,117.255c-24.616,0 -39.92,-15.52 -39.92,-41.219c0,-25.411 15.304,-41.148 39.776,-41.148c16.242,0 29.525,7.291 34.362,18.625c1.01,2.165 1.588,4.548 1.588,6.497c-0,6.136 -5.126,9.673 -10.973,9.673c-4.909,-0 -8.013,-1.949 -10.467,-6.064c-3.682,-6.425 -7.797,-9.24 -13.572,-9.24c-9.384,0 -14.798,7.724 -14.798,21.657c-0,14.076 5.269,21.8 14.654,21.8c6.497,0 10.467,-3.465 13.427,-8.085c3.321,-4.836 6.136,-7.074 11.55,-7.074c5.703,-0 10.684,3.681 10.684,10.034c-0,1.949 -0.505,4.115 -1.805,6.641c-5.197,10.612 -19.057,17.903 -34.506,17.903Zm69.879,-0.722c-14.655,0 -26.421,-9.673 -26.421,-23.894c-0,-14.727 11.333,-22.956 31.69,-24.183l18.408,-1.083l0,-4.476c0,-6.28 -4.475,-9.745 -11.189,-9.745c-5.486,-0 -8.518,1.588 -13.427,6.93c-2.96,2.96 -6.208,4.403 -10.106,4.403c-6.136,0 -10.468,-3.826 -10.468,-9.312c0,-1.805 0.217,-3.104 0.795,-4.62c3.32,-9.745 16.458,-15.665 34.506,-15.665c21.006,0 34.939,10.756 34.939,26.566l-0,42.735c-0,8.735 -5.27,12.85 -12.561,12.85c-6.786,-0 -11.622,-3.538 -12.344,-11.045l-0,-1.805l-0.506,0c-4.259,7.941 -13.86,12.344 -23.316,12.344Zm9.095,-17.614c7.797,0 14.582,-4.764 14.582,-11.766l0,-5.415l-14.293,0.939c-6.713,0.505 -10.539,3.609 -10.539,8.229c-0,4.981 4.114,8.013 10.25,8.013Zm64.681,18.12c-7.508,-0 -12.849,-4.332 -12.849,-13.283l-0,-55.802c-0,-8.085 4.547,-12.849 12.416,-12.849c7.868,-0 12.994,4.764 12.994,12.921l-0,2.96l0.505,0c4.115,-10.395 11.767,-15.737 23.822,-15.737c17.542,0 27.287,10.973 27.287,29.67l0,38.837c0,8.951 -5.269,13.283 -12.777,13.283c-7.507,-0 -12.777,-4.332 -12.777,-13.283l-0,-33.351c-0,-8.951 -4.259,-14.293 -12.633,-14.293c-8.157,-0 -13.211,6.136 -13.211,14.798l0,32.846c0,8.951 -5.342,13.283 -12.777,13.283Zm82.583,-22.74l0,-38.621l-2.815,0c-5.703,0 -9.457,-3.753 -9.457,-9.456c0,-5.775 3.754,-9.457 9.457,-9.457l2.815,0l0,-6.28c0,-8.302 4.693,-13.283 12.85,-13.283c8.085,0 12.777,4.981 12.777,13.283l0,6.28l6.209,0c5.702,0 9.456,3.754 9.456,9.457c0,5.703 -3.754,9.456 -9.456,9.456l-6.209,0l0,32.991c0,4.908 1.661,6.857 5.27,7.218l1.588,0.217c5.703,0.65 9.024,3.176 9.024,9.096c-0,7.435 -8.085,11.189 -17.975,11.189l-0.65,-0c-15.159,-0 -22.884,-7.508 -22.884,-22.09Zm87.565,22.956c-25.194,0 -40.137,-15.232 -40.137,-40.786c0,-25.483 15.16,-41.581 39.126,-41.581c23.389,0 38.765,15.449 38.765,36.672c0,6.497 -3.681,10.106 -10.323,10.106l-42.735,0l0,1.444c0,9.529 6.28,16.026 15.52,16.026c7.003,-0 11.839,-2.238 17.542,-8.013c2.671,-2.527 4.765,-3.393 7.941,-3.393c5.198,0 9.601,3.321 9.601,8.951c0,1.95 -0.577,3.899 -1.732,5.775c-5.198,9.241 -17.903,14.799 -33.568,14.799Zm-14.943,-50.171l28.587,0c-0.434,-8.518 -6.136,-14.004 -14.149,-14.004c-7.941,-0 -13.788,5.775 -14.438,14.004Zm100.342,50.171c-25.194,0 -40.137,-15.232 -40.137,-40.786c0,-25.483 15.16,-41.581 39.126,-41.581c23.389,0 38.765,15.449 38.765,36.672c0,6.497 -3.681,10.106 -10.323,10.106l-42.735,0l-0,1.444c-0,9.529 6.28,16.026 15.52,16.026c7.003,-0 11.839,-2.238 17.542,-8.013c2.671,-2.527 4.764,-3.393 7.941,-3.393c5.197,0 9.601,3.321 9.601,8.951c-0,1.95 -0.578,3.899 -1.733,5.775c-5.197,9.241 -17.902,14.799 -33.567,14.799Zm-14.943,-50.171l28.586,0c-0.433,-8.518 -6.136,-14.004 -14.149,-14.004c-7.94,-0 -13.788,5.775 -14.437,14.004Zm75.437,49.955c-7.508,-0 -12.85,-4.332 -12.85,-13.283l0,-55.802c0,-8.085 4.548,-12.849 12.416,-12.849c7.869,-0 12.994,4.764 12.994,12.921l0,2.96l0.506,0c4.114,-10.395 11.766,-15.737 23.822,-15.737c17.542,0 27.287,10.973 27.287,29.67l-0,38.837c-0,8.951 -5.27,13.283 -12.777,13.283c-7.508,-0 -12.778,-4.332 -12.778,-13.283l0,-33.351c0,-8.951 -4.259,-14.293 -12.633,-14.293c-8.157,-0 -13.21,6.136 -13.21,14.798l-0,32.846c-0,8.951 -5.342,13.283 -12.777,13.283Zm-602.756,-105.584l2.829,0c1.216,0.001 2.367,0.552 3.13,1.499c0.763,0.947 1.056,2.189 0.796,3.378l-4.024,18.433c-0.947,4.337 -4.786,7.43 -9.226,7.431l-33.153,0.006c-8.156,0 -15.977,3.24 -21.744,9.007c-12.001,12.001 -12.001,31.487 -0,43.487c5.767,5.767 13.588,9.007 21.744,9.007l22.375,0.003c1.216,0 2.367,0.551 3.13,1.498c0.762,0.947 1.055,2.189 0.796,3.377l-4.019,18.441c-0.946,4.34 -4.789,7.435 -9.231,7.434l-13.051,-0.003c-16.311,0 -31.954,-6.479 -43.488,-18.013c-24.001,-24.001 -24.001,-62.973 0,-86.975c9.489,-9.489 21.76,-15.557 34.896,-17.41c-0.01,-0.2 -0.015,-0.401 -0.015,-0.603c-0,-6.321 5.131,-11.452 11.452,-11.452c6.32,0 11.452,5.131 11.452,11.452l-0,0.001l2.447,0l0,-0.001c0,-6.321 5.132,-11.452 11.452,-11.452c6.321,0 11.452,5.131 11.452,11.452l0,0.003Zm81.652,80.257c4.663,1.957 8.045,6.108 9.02,11.071c0.975,4.962 -0.585,10.084 -4.161,13.66c-0,0 -0.001,0.001 -0.001,0.001c-11.534,11.534 -27.177,18.013 -43.488,18.013l-42.477,-0.003c-1.216,-0 -2.367,-0.551 -3.13,-1.499c-0.763,-0.947 -1.056,-2.189 -0.796,-3.378l4.024,-18.433c0.947,-4.337 4.786,-7.429 9.226,-7.43l33.153,-0.007c8.156,-0 15.977,-3.24 21.744,-9.007c0.54,-0.539 1.055,-1.094 1.546,-1.662c2.925,-3.403 7.711,-4.53 11.847,-2.792c1.11,0.466 2.287,0.96 3.493,1.466Zm-1.097,-31.807c-4.432,1.527 -9.337,-0.118 -11.954,-4.008c-1.096,-1.657 -2.377,-3.226 -3.835,-4.684c-5.767,-5.767 -13.588,-9.007 -21.744,-9.007l-22.375,-0.003c-1.216,-0 -2.367,-0.551 -3.13,-1.498c-0.762,-0.947 -1.055,-2.189 -0.796,-3.377l4.019,-18.441c0.946,-4.34 4.789,-7.434 9.231,-7.434l13.051,0.003c16.311,-0 31.954,6.479 43.488,18.013c1.697,1.697 3.274,3.469 4.732,5.306c3.054,3.88 4.041,9 2.647,13.737c-1.393,4.738 -4.995,8.508 -9.664,10.116c-2.177,0.763 -3.67,1.277 -3.67,1.277Zm-127.303,5.713c3.643,-0 6.6,2.957 6.6,6.6c0,3.643 -2.957,6.6 -6.6,6.6c-3.642,-0 -6.6,-2.957 -6.6,-6.6c0,-3.643 2.958,-6.6 6.6,-6.6Zm19.889,-0c3.643,-0 6.601,2.957 6.601,6.6c-0,3.643 -2.958,6.6 -6.601,6.6c-3.642,-0 -6.6,-2.957 -6.6,-6.6c0,-3.643 2.958,-6.6 6.6,-6.6Z"/></clipPath><g clip-path="url(#_clip1)"><path d="M160.325,24.491c30.773,-0 29.499,-40.77 41.828,-14.291c2.876,6.177 28.118,27.825 19.397,52.641c-9.585,27.274 19.339,35.071 22.247,47.737c9.641,42.003 -40.968,70.076 -83.472,70.076c-42.504,0 -77.011,-34.987 -77.011,-78.082c-0,-43.094 34.507,-78.081 77.011,-78.081Z" style="fill:#f1b8c6;fill-opacity:0.62;"/><path d="M462.276,-80.261c39.121,22.039 54.765,68.539 34.915,103.774c-19.851,35.236 -47.876,22.873 -86.996,0.834c-39.121,-22.04 -74.618,-45.463 -54.767,-80.699c19.851,-35.235 67.728,-45.949 106.848,-23.909Z" style="fill:#f1b8c6;fill-opacity:0.62;"/><ellipse cx="778.994" cy="158.53" rx="119.914" ry="117.114" style="fill:#f1b8c6;fill-opacity:0.62;"/><circle cx="110.682" cy="131.091" r="43.424" style="fill:#fbd7e0;fill-opacity:0.62;"/><circle cx="663.524" cy="23.805" r="43.424" style="fill:#fbd7e0;fill-opacity:0.62;"/><circle cx="522.442" cy="134.457" r="43.424" style="fill:#fbd7e0;fill-opacity:0.62;"/><path d="M247.285,94.941c14.308,-0 31.901,10.639 43.757,24.313c8.003,9.231 -16.99,35.311 -16.99,44.97c-0,23.966 10.925,27.957 -13.041,27.957c-23.966,0 -61.192,-3.991 -61.192,-27.957c-0,-9.752 7.775,-21.611 16.7,-31.901c13.01,-14.998 16.552,-37.382 30.766,-37.382Z" style="fill:#fbd7e0;fill-opacity:0.62;"/></g><g transform="matrix(111.842,0,0,111.842,788.946,115.993)"><path d="M0.149,0.009c-0.027,0 -0.047,-0.007 -0.061,-0.022c-0.015,-0.015 -0.022,-0.035 -0.022,-0.062l0,-0.555c0,-0.027 0.008,-0.048 0.023,-0.062c0.016,-0.015 0.037,-0.022 0.065,-0.022c0.023,-0 0.042,0.004 0.055,0.013c0.014,0.009 0.027,0.024 0.038,0.045l0.215,0.386l-0.035,0l0.214,-0.386c0.012,-0.021 0.024,-0.036 0.038,-0.045c0.014,-0.009 0.032,-0.013 0.056,-0.013c0.026,-0 0.047,0.007 0.061,0.022c0.015,0.014 0.022,0.035 0.022,0.062l0,0.555c0,0.027 -0.007,0.047 -0.021,0.062c-0.014,0.015 -0.035,0.022 -0.062,0.022c-0.027,0 -0.047,-0.007 -0.061,-0.022c-0.015,-0.015 -0.022,-0.035 -0.022,-0.062l0,-0.344l0.021,-0l-0.161,0.28c-0.009,0.015 -0.019,0.026 -0.029,0.033c-0.011,0.007 -0.025,0.011 -0.042,0.011c-0.017,-0 -0.03,-0.004 -0.041,-0.011c-0.011,-0.008 -0.021,-0.019 -0.029,-0.033l-0.162,-0.281l0.023,0l0,0.345c0,0.027 -0.007,0.047 -0.021,0.062c-0.014,0.015 -0.035,0.022 -0.062,0.022Z" style="fill:#f0f0f0;fill-rule:nonzero;"/></g><g transform="matrix(111.842,0,0,111.842,887.811,115.993)"><path d="M0.097,0.009c-0.021,0 -0.038,-0.005 -0.052,-0.015c-0.014,-0.009 -0.023,-0.023 -0.026,-0.04c-0.004,-0.017 -0.001,-0.036 0.009,-0.057l0.249,-0.536c0.012,-0.026 0.027,-0.045 0.045,-0.057c0.017,-0.012 0.037,-0.018 0.06,-0.018c0.023,-0 0.042,0.006 0.06,0.018c0.017,0.012 0.032,0.031 0.044,0.057l0.249,0.536c0.011,0.021 0.014,0.041 0.011,0.058c-0.003,0.017 -0.011,0.03 -0.025,0.04c-0.013,0.01 -0.03,0.014 -0.05,0.014c-0.027,0 -0.047,-0.006 -0.061,-0.018c-0.015,-0.012 -0.028,-0.032 -0.039,-0.058l-0.054,-0.127l0.07,0.051l-0.412,0l0.071,-0.051l-0.054,0.127c-0.012,0.027 -0.024,0.046 -0.037,0.058c-0.012,0.012 -0.032,0.018 -0.058,0.018Zm0.283,-0.522l-0.116,0.277l-0.028,-0.048l0.291,-0l-0.028,0.048l-0.117,-0.277l-0.002,0Z" style="fill:#f0f0f0;fill-rule:nonzero;"/></g><g transform="matrix(111.842,0,0,111.842,973.093,115.993)"><path d="M0.15,0.009c-0.028,0 -0.049,-0.007 -0.064,-0.022c-0.014,-0.015 -0.022,-0.037 -0.022,-0.065l0,-0.545c0,-0.03 0.008,-0.052 0.022,-0.068c0.015,-0.015 0.034,-0.023 0.058,-0.023c0.021,-0 0.038,0.004 0.05,0.012c0.012,0.008 0.025,0.022 0.04,0.04l0.317,0.396l-0.028,0l-0,-0.362c-0,-0.028 0.007,-0.049 0.022,-0.064c0.014,-0.015 0.035,-0.022 0.063,-0.022c0.028,-0 0.049,0.007 0.064,0.022c0.014,0.015 0.021,0.036 0.021,0.064l0,0.554c0,0.025 -0.006,0.045 -0.02,0.061c-0.013,0.015 -0.031,0.022 -0.054,0.022c-0.023,0 -0.04,-0.004 -0.053,-0.012c-0.013,-0.009 -0.027,-0.022 -0.042,-0.04l-0.317,-0.397l0.028,0l-0,0.362c-0,0.028 -0.007,0.05 -0.022,0.065c-0.014,0.015 -0.035,0.022 -0.063,0.022Z" style="fill:#f0f0f0;fill-rule:nonzero;"/></g><g transform="matrix(111.842,0,0,111.842,1057.82,115.993)"><path d="M0.376,0.011c-0.051,0 -0.097,-0.006 -0.136,-0.019c-0.039,-0.013 -0.073,-0.033 -0.1,-0.059c-0.027,-0.026 -0.047,-0.058 -0.06,-0.097c-0.014,-0.039 -0.021,-0.085 -0.021,-0.136l0,-0.321c0,-0.031 0.008,-0.054 0.024,-0.07c0.016,-0.015 0.039,-0.023 0.068,-0.023c0.03,-0 0.053,0.008 0.068,0.023c0.016,0.016 0.024,0.039 0.024,0.07l-0,0.323c-0,0.051 0.011,0.09 0.034,0.116c0.023,0.026 0.056,0.039 0.099,0.039c0.043,0 0.076,-0.013 0.098,-0.039c0.023,-0.026 0.034,-0.065 0.034,-0.116l0,-0.323c0,-0.031 0.008,-0.054 0.024,-0.07c0.016,-0.015 0.038,-0.023 0.067,-0.023c0.029,-0 0.051,0.008 0.067,0.023c0.015,0.016 0.023,0.039 0.023,0.07l-0,0.321c-0,0.069 -0.012,0.126 -0.035,0.173c-0.024,0.046 -0.059,0.081 -0.106,0.104c-0.046,0.023 -0.104,0.034 -0.172,0.034Z" style="fill:#f0f0f0;fill-rule:nonzero;"/></g><g transform="matrix(111.842,0,0,111.842,1140.94,115.993)"><path d="M0.097,0.009c-0.021,0 -0.038,-0.005 -0.052,-0.015c-0.014,-0.009 -0.023,-0.023 -0.026,-0.04c-0.004,-0.017 -0.001,-0.036 0.009,-0.057l0.249,-0.536c0.012,-0.026 0.027,-0.045 0.045,-0.057c0.017,-0.012 0.037,-0.018 0.06,-0.018c0.023,-0 0.042,0.006 0.06,0.018c0.017,0.012 0.032,0.031 0.044,0.057l0.249,0.536c0.011,0.021 0.014,0.041 0.011,0.058c-0.003,0.017 -0.011,0.03 -0.025,0.04c-0.013,0.01 -0.03,0.014 -0.05,0.014c-0.027,0 -0.047,-0.006 -0.061,-0.018c-0.015,-0.012 -0.028,-0.032 -0.039,-0.058l-0.054,-0.127l0.07,0.051l-0.412,0l0.071,-0.051l-0.054,0.127c-0.012,0.027 -0.024,0.046 -0.037,0.058c-0.012,0.012 -0.032,0.018 -0.058,0.018Zm0.283,-0.522l-0.116,0.277l-0.028,-0.048l0.291,-0l-0.028,0.048l-0.117,-0.277l-0.002,0Z" style="fill:#f0f0f0;fill-rule:nonzero;"/></g><g transform="matrix(111.842,0,0,111.842,1226.23,115.993)"><path d="M0.157,-0c-0.029,-0 -0.052,-0.008 -0.068,-0.025c-0.017,-0.016 -0.025,-0.039 -0.025,-0.068l0,-0.52c0,-0.03 0.008,-0.053 0.024,-0.069c0.016,-0.016 0.039,-0.024 0.068,-0.024c0.03,-0 0.053,0.008 0.068,0.024c0.016,0.016 0.024,0.039 0.024,0.069l-0,0.46l0.244,-0c0.026,-0 0.045,0.007 0.059,0.02c0.013,0.013 0.02,0.032 0.02,0.056c-0,0.025 -0.007,0.044 -0.02,0.057c-0.014,0.013 -0.033,0.02 -0.059,0.02l-0.335,-0Z" style="fill:#f0f0f0;fill-rule:nonzero;"/></g><g transform="matrix(111.842,0,0,111.842,1291.65,115.993)"></g></svg>