<?xml version="1.0" encoding="UTF-8" standalone="no"?><!DOCTYPE svg PUBLIC "-//W3C//DTD SVG 1.1//EN" "http://www.w3.org/Graphics/SVG/1.1/DTD/svg11.dtd"><svg width="100%" height="100%" viewBox="0 0 715 135" version="1.1" xmlns="http://www.w3.org/2000/svg" xmlns:xlink="http://www.w3.org/1999/xlink" xml:space="preserve" xmlns:serif="http://www.serif.com/" style="fill-rule:evenodd;clip-rule:evenodd;stroke-linejoin:round;stroke-miterlimit:2;"><path d="M101.137,11.455l2.829,0c1.216,0.001 2.367,0.552 3.13,1.499c0.763,0.947 1.056,2.189 0.796,3.378l-4.024,18.433c-0.947,4.337 -4.786,7.43 -9.226,7.431l-33.153,0.006c-8.156,0 -15.977,3.24 -21.744,9.007c-12.001,12.001 -12.001,31.487 -0,43.487c5.767,5.767 13.588,9.007 21.744,9.007l22.375,0.003c1.216,0 2.367,0.551 3.13,1.498c0.762,0.947 1.055,2.189 0.796,3.377l-4.019,18.441c-0.946,4.34 -4.789,7.435 -9.231,7.434l-13.051,-0.003c-16.311,0 -31.954,-6.479 -43.488,-18.013c-24.001,-24.001 -24.001,-62.973 0,-86.975c9.489,-9.489 21.76,-15.557 34.896,-17.41c-0.01,-0.2 -0.015,-0.401 -0.015,-0.603c-0,-6.321 5.131,-11.452 11.452,-11.452c6.32,-0 11.452,5.131 11.452,11.452l-0,0.001l2.447,0l0,-0.001c0,-6.321 5.132,-11.452 11.452,-11.452c6.321,0 11.452,5.131 11.452,11.452l0,0.003Zm81.652,80.257c4.663,1.957 8.045,6.108 9.02,11.071c0.975,4.962 -0.585,10.084 -4.161,13.66c-0,0 -0.001,0.001 -0.001,0.001c-11.534,11.534 -27.177,18.013 -43.488,18.013l-42.477,-0.003c-1.216,-0 -2.367,-0.551 -3.13,-1.499c-0.763,-0.947 -1.056,-2.189 -0.796,-3.378l4.024,-18.433c0.947,-4.337 4.786,-7.429 9.226,-7.43l33.153,-0.007c8.156,-0 15.977,-3.24 21.744,-9.007c0.54,-0.539 1.055,-1.094 1.546,-1.662c2.925,-3.403 7.711,-4.53 11.847,-2.792c1.11,0.466 2.287,0.96 3.493,1.466Zm-1.097,-31.807c-4.432,1.527 -9.337,-0.118 -11.954,-4.008c-1.096,-1.657 -2.377,-3.226 -3.835,-4.684c-5.767,-5.767 -13.588,-9.007 -21.744,-9.007l-22.375,-0.003c-1.216,-0 -2.367,-0.551 -3.13,-1.498c-0.762,-0.947 -1.055,-2.189 -0.796,-3.377l4.019,-18.441c0.946,-4.34 4.789,-7.434 9.231,-7.434l13.051,0.003c16.311,-0 31.954,6.479 43.488,18.013c1.697,1.697 3.274,3.469 4.732,5.306c3.054,3.88 4.041,9 2.647,13.737c-1.393,4.738 -4.995,8.508 -9.664,10.116c-2.177,0.763 -3.67,1.277 -3.67,1.277Zm-127.303,5.713c3.643,-0 6.6,2.957 6.6,6.6c0,3.643 -2.957,6.6 -6.6,6.6c-3.642,-0 -6.6,-2.957 -6.6,-6.6c0,-3.643 2.958,-6.6 6.6,-6.6Zm19.889,-0c3.643,-0 6.601,2.957 6.601,6.6c-0,3.643 -2.958,6.6 -6.601,6.6c-3.642,-0 -6.6,-2.957 -6.6,-6.6c0,-3.643 2.958,-6.6 6.6,-6.6Z" style="fill:#e06285;"/><clipPath id="_clip1"><path d="M101.137,11.455l2.829,0c1.216,0.001 2.367,0.552 3.13,1.499c0.763,0.947 1.056,2.189 0.796,3.378l-4.024,18.433c-0.947,4.337 -4.786,7.43 -9.226,7.431l-33.153,0.006c-8.156,0 -15.977,3.24 -21.744,9.007c-12.001,12.001 -12.001,31.487 -0,43.487c5.767,5.767 13.588,9.007 21.744,9.007l22.375,0.003c1.216,0 2.367,0.551 3.13,1.498c0.762,0.947 1.055,2.189 0.796,3.377l-4.019,18.441c-0.946,4.34 -4.789,7.435 -9.231,7.434l-13.051,-0.003c-16.311,0 -31.954,-6.479 -43.488,-18.013c-24.001,-24.001 -24.001,-62.973 0,-86.975c9.489,-9.489 21.76,-15.557 34.896,-17.41c-0.01,-0.2 -0.015,-0.401 -0.015,-0.603c-0,-6.321 5.131,-11.452 11.452,-11.452c6.32,-0 11.452,5.131 11.452,11.452l-0,0.001l2.447,0l0,-0.001c0,-6.321 5.132,-11.452 11.452,-11.452c6.321,0 11.452,5.131 11.452,11.452l0,0.003Zm81.652,80.257c4.663,1.957 8.045,6.108 9.02,11.071c0.975,4.962 -0.585,10.084 -4.161,13.66c-0,0 -0.001,0.001 -0.001,0.001c-11.534,11.534 -27.177,18.013 -43.488,18.013l-42.477,-0.003c-1.216,-0 -2.367,-0.551 -3.13,-1.499c-0.763,-0.947 -1.056,-2.189 -0.796,-3.378l4.024,-18.433c0.947,-4.337 4.786,-7.429 9.226,-7.43l33.153,-0.007c8.156,-0 15.977,-3.24 21.744,-9.007c0.54,-0.539 1.055,-1.094 1.546,-1.662c2.925,-3.403 7.711,-4.53 11.847,-2.792c1.11,0.466 2.287,0.96 3.493,1.466Zm-1.097,-31.807c-4.432,1.527 -9.337,-0.118 -11.954,-4.008c-1.096,-1.657 -2.377,-3.226 -3.835,-4.684c-5.767,-5.767 -13.588,-9.007 -21.744,-9.007l-22.375,-0.003c-1.216,-0 -2.367,-0.551 -3.13,-1.498c-0.762,-0.947 -1.055,-2.189 -0.796,-3.377l4.019,-18.441c0.946,-4.34 4.789,-7.434 9.231,-7.434l13.051,0.003c16.311,-0 31.954,6.479 43.488,18.013c1.697,1.697 3.274,3.469 4.732,5.306c3.054,3.88 4.041,9 2.647,13.737c-1.393,4.738 -4.995,8.508 -9.664,10.116c-2.177,0.763 -3.67,1.277 -3.67,1.277Zm-127.303,5.713c3.643,-0 6.6,2.957 6.6,6.6c0,3.643 -2.957,6.6 -6.6,6.6c-3.642,-0 -6.6,-2.957 -6.6,-6.6c0,-3.643 2.958,-6.6 6.6,-6.6Zm19.889,-0c3.643,-0 6.601,2.957 6.601,6.6c-0,3.643 -2.958,6.6 -6.601,6.6c-3.642,-0 -6.6,-2.957 -6.6,-6.6c0,-3.643 2.958,-6.6 6.6,-6.6Z"/></clipPath><g clip-path="url(#_clip1)"><path d="M160.325,24.491c30.773,-0 29.499,-40.77 41.828,-14.291c2.876,6.177 28.118,27.825 19.397,52.641c-9.585,27.274 19.339,35.071 22.247,47.737c9.641,42.003 -40.968,70.076 -83.472,70.076c-42.504,0 -77.011,-34.987 -77.011,-78.082c-0,-43.094 34.507,-78.081 77.011,-78.081Z" style="fill:#f1b8c6;fill-opacity:0.62;"/><path d="M462.276,-80.261c39.121,22.039 54.765,68.539 34.915,103.774c-19.851,35.236 -47.876,22.873 -86.996,0.834c-39.121,-22.04 -74.618,-45.463 -54.767,-80.699c19.851,-35.235 67.728,-45.949 106.848,-23.909Z" style="fill:#f1b8c6;fill-opacity:0.62;"/><ellipse cx="778.994" cy="158.53" rx="119.914" ry="117.114" style="fill:#f1b8c6;fill-opacity:0.62;"/><circle cx="110.682" cy="131.091" r="43.424" style="fill:#fbd7e0;fill-opacity:0.62;"/><circle cx="663.524" cy="23.805" r="43.424" style="fill:#fbd7e0;fill-opacity:0.62;"/><circle cx="522.442" cy="134.457" r="43.424" style="fill:#fbd7e0;fill-opacity:0.62;"/><path d="M247.285,94.941c14.308,-0 31.901,10.639 43.757,24.313c8.003,9.231 -16.99,35.311 -16.99,44.97c-0,23.966 10.925,27.957 -13.041,27.957c-23.966,0 -61.192,-3.991 -61.192,-27.957c-0,-9.752 7.775,-21.611 16.7,-31.901c13.01,-14.998 16.552,-37.382 30.766,-37.382Z" style="fill:#fbd7e0;fill-opacity:0.62;"/></g><g transform="matrix(111.842,0,0,111.842,213.33,115.632)"><path d="M0.149,0.009c-0.027,0 -0.047,-0.007 -0.061,-0.022c-0.015,-0.015 -0.022,-0.035 -0.022,-0.062l0,-0.555c0,-0.027 0.008,-0.048 0.023,-0.062c0.016,-0.015 0.037,-0.022 0.065,-0.022c0.023,-0 0.042,0.004 0.055,0.013c0.014,0.009 0.027,0.024 0.038,0.045l0.215,0.386l-0.035,0l0.214,-0.386c0.012,-0.021 0.024,-0.036 0.038,-0.045c0.014,-0.009 0.032,-0.013 0.056,-0.013c0.026,-0 0.047,0.007 0.061,0.022c0.015,0.014 0.022,0.035 0.022,0.062l0,0.555c0,0.027 -0.007,0.047 -0.021,0.062c-0.014,0.015 -0.035,0.022 -0.062,0.022c-0.027,0 -0.047,-0.007 -0.061,-0.022c-0.015,-0.015 -0.022,-0.035 -0.022,-0.062l0,-0.344l0.021,-0l-0.161,0.28c-0.009,0.015 -0.019,0.026 -0.029,0.033c-0.011,0.007 -0.025,0.011 -0.042,0.011c-0.017,-0 -0.03,-0.004 -0.041,-0.011c-0.011,-0.008 -0.021,-0.019 -0.029,-0.033l-0.162,-0.281l0.023,0l0,0.345c0,0.027 -0.007,0.047 -0.021,0.062c-0.014,0.015 -0.035,0.022 -0.062,0.022Z" style="fill:#666;fill-rule:nonzero;"/></g><g transform="matrix(111.842,0,0,111.842,312.194,115.632)"><path d="M0.097,0.009c-0.021,0 -0.038,-0.005 -0.052,-0.015c-0.014,-0.009 -0.023,-0.023 -0.026,-0.04c-0.004,-0.017 -0.001,-0.036 0.009,-0.057l0.249,-0.536c0.012,-0.026 0.027,-0.045 0.045,-0.057c0.017,-0.012 0.037,-0.018 0.06,-0.018c0.023,-0 0.042,0.006 0.06,0.018c0.017,0.012 0.032,0.031 0.044,0.057l0.249,0.536c0.011,0.021 0.014,0.041 0.011,0.058c-0.003,0.017 -0.011,0.03 -0.025,0.04c-0.013,0.01 -0.03,0.014 -0.05,0.014c-0.027,0 -0.047,-0.006 -0.061,-0.018c-0.015,-0.012 -0.028,-0.032 -0.039,-0.058l-0.054,-0.127l0.07,0.051l-0.412,0l0.071,-0.051l-0.054,0.127c-0.012,0.027 -0.024,0.046 -0.037,0.058c-0.012,0.012 -0.032,0.018 -0.058,0.018Zm0.283,-0.522l-0.116,0.277l-0.028,-0.048l0.291,-0l-0.028,0.048l-0.117,-0.277l-0.002,0Z" style="fill:#666;fill-rule:nonzero;"/></g><g transform="matrix(111.842,0,0,111.842,397.476,115.632)"><path d="M0.15,0.009c-0.028,0 -0.049,-0.007 -0.064,-0.022c-0.014,-0.015 -0.022,-0.037 -0.022,-0.065l0,-0.545c0,-0.03 0.008,-0.052 0.022,-0.068c0.015,-0.015 0.034,-0.023 0.058,-0.023c0.021,-0 0.038,0.004 0.05,0.012c0.012,0.008 0.025,0.022 0.04,0.04l0.317,0.396l-0.028,0l-0,-0.362c-0,-0.028 0.007,-0.049 0.022,-0.064c0.014,-0.015 0.035,-0.022 0.063,-0.022c0.028,-0 0.049,0.007 0.064,0.022c0.014,0.015 0.021,0.036 0.021,0.064l0,0.554c0,0.025 -0.006,0.045 -0.02,0.061c-0.013,0.015 -0.031,0.022 -0.054,0.022c-0.023,0 -0.04,-0.004 -0.053,-0.012c-0.013,-0.009 -0.027,-0.022 -0.042,-0.04l-0.317,-0.397l0.028,0l-0,0.362c-0,0.028 -0.007,0.05 -0.022,0.065c-0.014,0.015 -0.035,0.022 -0.063,0.022Z" style="fill:#666;fill-rule:nonzero;"/></g><g transform="matrix(111.842,0,0,111.842,482.205,115.632)"><path d="M0.376,0.011c-0.051,0 -0.097,-0.006 -0.136,-0.019c-0.039,-0.013 -0.073,-0.033 -0.1,-0.059c-0.027,-0.026 -0.047,-0.058 -0.06,-0.097c-0.014,-0.039 -0.021,-0.085 -0.021,-0.136l0,-0.321c0,-0.031 0.008,-0.054 0.024,-0.07c0.016,-0.015 0.039,-0.023 0.068,-0.023c0.03,-0 0.053,0.008 0.068,0.023c0.016,0.016 0.024,0.039 0.024,0.07l-0,0.323c-0,0.051 0.011,0.09 0.034,0.116c0.023,0.026 0.056,0.039 0.099,0.039c0.043,0 0.076,-0.013 0.098,-0.039c0.023,-0.026 0.034,-0.065 0.034,-0.116l0,-0.323c0,-0.031 0.008,-0.054 0.024,-0.07c0.016,-0.015 0.038,-0.023 0.067,-0.023c0.029,-0 0.051,0.008 0.067,0.023c0.015,0.016 0.023,0.039 0.023,0.07l-0,0.321c-0,0.069 -0.012,0.126 -0.035,0.173c-0.024,0.046 -0.059,0.081 -0.106,0.104c-0.046,0.023 -0.104,0.034 -0.172,0.034Z" style="fill:#666;fill-rule:nonzero;"/></g><g transform="matrix(111.842,0,0,111.842,565.328,115.632)"><path d="M0.097,0.009c-0.021,0 -0.038,-0.005 -0.052,-0.015c-0.014,-0.009 -0.023,-0.023 -0.026,-0.04c-0.004,-0.017 -0.001,-0.036 0.009,-0.057l0.249,-0.536c0.012,-0.026 0.027,-0.045 0.045,-0.057c0.017,-0.012 0.037,-0.018 0.06,-0.018c0.023,-0 0.042,0.006 0.06,0.018c0.017,0.012 0.032,0.031 0.044,0.057l0.249,0.536c0.011,0.021 0.014,0.041 0.011,0.058c-0.003,0.017 -0.011,0.03 -0.025,0.04c-0.013,0.01 -0.03,0.014 -0.05,0.014c-0.027,0 -0.047,-0.006 -0.061,-0.018c-0.015,-0.012 -0.028,-0.032 -0.039,-0.058l-0.054,-0.127l0.07,0.051l-0.412,0l0.071,-0.051l-0.054,0.127c-0.012,0.027 -0.024,0.046 -0.037,0.058c-0.012,0.012 -0.032,0.018 -0.058,0.018Zm0.283,-0.522l-0.116,0.277l-0.028,-0.048l0.291,-0l-0.028,0.048l-0.117,-0.277l-0.002,0Z" style="fill:#666;fill-rule:nonzero;"/></g><g transform="matrix(111.842,0,0,111.842,650.61,115.632)"><path d="M0.157,-0c-0.029,-0 -0.052,-0.008 -0.068,-0.025c-0.017,-0.016 -0.025,-0.039 -0.025,-0.068l0,-0.52c0,-0.03 0.008,-0.053 0.024,-0.069c0.016,-0.016 0.039,-0.024 0.068,-0.024c0.03,-0 0.053,0.008 0.068,0.024c0.016,0.016 0.024,0.039 0.024,0.069l-0,0.46l0.244,-0c0.026,-0 0.045,0.007 0.059,0.02c0.013,0.013 0.02,0.032 0.02,0.056c-0,0.025 -0.007,0.044 -0.02,0.057c-0.014,0.013 -0.033,0.02 -0.059,0.02l-0.335,-0Z" style="fill:#666;fill-rule:nonzero;"/></g><g transform="matrix(111.842,0,0,111.842,716.036,115.632)"></g></svg>